<?xml version="1.0" encoding="UTF-8" standalone="no"?>
<!DOCTYPE svg PUBLIC "-//W3C//DTD SVG 1.1//EN"
 "http://www.w3.org/Graphics/SVG/1.1/DTD/svg11.dtd">
<!-- Generated by graphviz version 2.43.0 (0)
 -->
<!-- Title: IndentChangeNewChild Pages: 1 -->
<svg width="139pt" height="216pt"
 viewBox="0.00 0.00 139.00 215.84" xmlns="http://www.w3.org/2000/svg" xmlns:xlink="http://www.w3.org/1999/xlink">
<g id="graph0" class="graph" transform="scale(1 1) rotate(0) translate(4 211.84)">
<title>IndentChangeNewChild</title>
<polygon fill="white" stroke="transparent" points="-4,4 -4,-211.84 135,-211.84 135,4 -4,4"/>
<!-- C1 -->
<g id="node1" class="node">
<title>C1</title>
<ellipse fill="white" stroke="black" cx="60.5" cy="-186.34" rx="21.5" ry="21.5"/>
<text text-anchor="middle" x="60.5" y="-182.64" font-family="Arial" font-size="14.00">C1</text>
</g>
<!-- C2 -->
<g id="node2" class="node">
<title>C2</title>
<ellipse fill="white" stroke="black" cx="21.5" cy="-107.34" rx="21.5" ry="21.5"/>
<text text-anchor="middle" x="21.5" y="-103.64" font-family="Arial" font-size="14.00">C2</text>
</g>
<!-- C1&#45;&#45;C2 -->
<g id="edge1" class="edge">
<title>C1&#45;&#45;C2</title>
<path fill="none" stroke="black" d="M51.06,-166.7C44.93,-154.59 36.97,-138.88 30.85,-126.8"/>
</g>
<!-- C3 v1 -->
<g id="node3" class="node">
<title>C3 v1</title>
<ellipse fill="#eedd82" stroke="goldenrod" cx="100.5" cy="-107.34" rx="21.5" ry="21.5"/>
<text text-anchor="middle" x="100.5" y="-103.64" font-family="Arial" font-size="14.00">C3 v1</text>
</g>
<!-- C1&#45;&#45;C3 v1 -->
<g id="edge2" class="edge">
<title>C1&#45;&#45;C3 v1</title>
<path fill="none" stroke="black" d="M70.18,-166.7C76.47,-154.59 84.64,-138.88 90.91,-126.8"/>
</g>
<!-- C2&#45;&#45;C2 -->
<g id="edge6" class="edge">
<title>C2&#45;&#45;C2</title>
<path fill="none" stroke="transparent" d="M38.55,-120.67C49.93,-124.43 61,-119.98 61,-107.34 61,-94.69 49.93,-90.25 38.55,-94"/>
<text text-anchor="middle" x="45.05" y="-82.8" font-family="Arial" font-size="14.00">M</text>
</g>
<!-- C3 v2 -->
<g id="node4" class="node">
<title>C3 v2</title>
<ellipse fill="#eedd82" stroke="goldenrod" cx="21.5" cy="-28.34" rx="21.5" ry="21.5"/>
<text text-anchor="middle" x="21.5" y="-24.64" font-family="Arial" font-size="14.00">C3 v2</text>
</g>
<!-- C2&#45;&#45;C3 v2 -->
<g id="edge3" class="edge">
<title>C2&#45;&#45;C3 v2</title>
<path fill="none" stroke="goldenrod" stroke-dasharray="1,5" d="M21.5,-85.7C21.5,-74.65 21.5,-61.08 21.5,-50.03"/>
</g>
<!-- C4 -->
<g id="node5" class="node">
<title>C4</title>
<ellipse fill="white" stroke="black" cx="91.5" cy="-28.34" rx="21.5" ry="21.5"/>
<text text-anchor="middle" x="91.5" y="-24.64" font-family="Arial" font-size="14.00">C4</text>
</g>
<!-- C2&#45;&#45;C4 -->
<g id="edge5" class="edge">
<title>C2&#45;&#45;C4</title>
<path fill="none" stroke="goldenrod" stroke-dasharray="1,5" d="M35.67,-90.75C47.81,-77.39 65.22,-58.25 77.36,-44.89"/>
</g>
<!-- C3 v1&#45;&#45;C4 -->
<g id="edge4" class="edge">
<title>C3 v1&#45;&#45;C4</title>
<path fill="none" stroke="black" d="M98.09,-85.7C96.79,-74.56 95.19,-60.86 93.89,-49.76"/>
</g>
<!-- C4&#45;&#45;C4 -->
<g id="edge7" class="edge">
<title>C4&#45;&#45;C4</title>
<path fill="none" stroke="transparent" d="M108.55,-41.67C119.93,-45.43 131,-40.98 131,-28.34 131,-15.69 119.93,-11.25 108.55,-15"/>
<text text-anchor="middle" x="115.05" y="-3.8" font-family="Arial" font-size="14.00">M</text>
</g>
</g>
</svg>
