<?xml version="1.0" encoding="UTF-8" standalone="no"?>
<!DOCTYPE svg PUBLIC "-//W3C//DTD SVG 1.1//EN"
 "http://www.w3.org/Graphics/SVG/1.1/DTD/svg11.dtd">
<!-- Generated by graphviz version 2.43.0 (0)
 -->
<!-- Title: IncreaseIndent Pages: 1 -->
<svg width="154pt" height="216pt"
 viewBox="0.00 0.00 153.55 215.84" xmlns="http://www.w3.org/2000/svg" xmlns:xlink="http://www.w3.org/1999/xlink">
<g id="graph0" class="graph" transform="scale(1 1) rotate(0) translate(4 211.84)">
<title>IncreaseIndent</title>
<polygon fill="white" stroke="transparent" points="-4,4 -4,-211.84 149.55,-211.84 149.55,4 -4,4"/>
<!-- C1 -->
<g id="node1" class="node">
<title>C1</title>
<ellipse fill="white" stroke="black" cx="60.5" cy="-186.34" rx="21.5" ry="21.5"/>
<text text-anchor="middle" x="60.5" y="-182.64" font-family="Arial" font-size="14.00">C1</text>
</g>
<!-- C2 -->
<g id="node2" class="node">
<title>C2</title>
<ellipse fill="white" stroke="black" cx="21.5" cy="-107.34" rx="21.5" ry="21.5"/>
<text text-anchor="middle" x="21.5" y="-103.64" font-family="Arial" font-size="14.00">C2</text>
</g>
<!-- C1&#45;&#45;C2 -->
<g id="edge1" class="edge">
<title>C1&#45;&#45;C2</title>
<path fill="none" stroke="black" d="M51.06,-166.7C44.93,-154.59 36.97,-138.88 30.85,-126.8"/>
</g>
<!-- C3 v1 -->
<g id="node3" class="node">
<title>C3 v1</title>
<ellipse fill="#eedd82" stroke="goldenrod" cx="100.5" cy="-107.34" rx="21.5" ry="21.5"/>
<text text-anchor="middle" x="100.5" y="-103.64" font-family="Arial" font-size="14.00">C3 v1</text>
</g>
<!-- C1&#45;&#45;C3 v1 -->
<g id="edge2" class="edge">
<title>C1&#45;&#45;C3 v1</title>
<path fill="none" stroke="black" d="M70.18,-166.7C76.47,-154.59 84.64,-138.88 90.91,-126.8"/>
</g>
<!-- C2&#45;&#45;C2 -->
<g id="edge6" class="edge">
<title>C2&#45;&#45;C2</title>
<path fill="none" stroke="transparent" d="M38.55,-120.67C49.93,-124.43 61,-119.98 61,-107.34 61,-94.69 49.93,-90.25 38.55,-94"/>
<text text-anchor="middle" x="45.05" y="-82.8" font-family="Arial" font-size="14.00">M</text>
</g>
<!-- C3 v2 -->
<g id="node4" class="node">
<title>C3 v2</title>
<ellipse fill="#eedd82" stroke="goldenrod" cx="21.5" cy="-28.34" rx="21.5" ry="21.5"/>
<text text-anchor="middle" x="21.5" y="-24.64" font-family="Arial" font-size="14.00">C3 v2</text>
</g>
<!-- C2&#45;&#45;C3 v2 -->
<g id="edge3" class="edge">
<title>C2&#45;&#45;C3 v2</title>
<path fill="none" stroke="goldenrod" stroke-dasharray="1,5" d="M21.5,-85.7C21.5,-74.65 21.5,-61.08 21.5,-50.03"/>
</g>
<!-- C3 v1&#45;&#45;C3 v1 -->
<g id="edge4" class="edge">
<title>C3 v1&#45;&#45;C3 v1</title>
<path fill="none" stroke="transparent" d="M117.55,-120.67C128.93,-124.43 140,-119.98 140,-107.34 140,-94.69 128.93,-90.25 117.55,-94"/>
<text text-anchor="middle" x="131.55" y="-82.8" font-family="Arial" font-size="14.00">M, F</text>
</g>
<!-- C3 v2&#45;&#45;C3 v2 -->
<g id="edge5" class="edge">
<title>C3 v2&#45;&#45;C3 v2</title>
<path fill="none" stroke="transparent" d="M38.55,-41.67C49.93,-45.43 61,-40.98 61,-28.34 61,-15.69 49.93,-11.25 38.55,-15"/>
<text text-anchor="middle" x="52.55" y="-3.8" font-family="Arial" font-size="14.00">M, F</text>
</g>
</g>
</svg>
