<?xml version="1.0" encoding="UTF-8" standalone="no"?>
<!DOCTYPE svg PUBLIC "-//W3C//DTD SVG 1.1//EN"
 "http://www.w3.org/Graphics/SVG/1.1/DTD/svg11.dtd">
<!-- Generated by graphviz version 2.43.0 (0)
 -->
<!-- Title: BasicAlgorithm Pages: 1 -->
<svg width="2056pt" height="2816pt"
 viewBox="0.00 0.00 2055.50 2816.20" xmlns="http://www.w3.org/2000/svg" xmlns:xlink="http://www.w3.org/1999/xlink">
<g id="graph0" class="graph" transform="scale(1 1) rotate(0) translate(4 2812.2)">
<title>BasicAlgorithm</title>
<polygon fill="white" stroke="transparent" points="-4,4 -4,-2812.2 2051.5,-2812.2 2051.5,4 -4,4"/>
<!-- Start -->
<g id="node1" class="node">
<title>Start</title>
<ellipse fill="white" stroke="green" cx="1862.5" cy="-2687" rx="18" ry="18"/>
</g>
<!-- Find business rule violations -->
<g id="node2" class="node">
<title>Find business rule violations</title>
<polygon fill="white" stroke="black" points="1089.5,-2119 903.5,-2119 903.5,-2083 1089.5,-2083 1089.5,-2119"/>
<text text-anchor="middle" x="996.5" y="-2097.3" font-family="Arial" font-size="14.00">Find business rule violations</text>
</g>
<!-- Start&#45;&gt;Find business rule violations -->
<g id="edge1" class="edge">
<title>Start&#45;&gt;Find business rule violations</title>
<path fill="none" stroke="black" d="M1847.83,-2676.11C1748.78,-2609.31 1177.13,-2223.81 1030.68,-2125.05"/>
<polygon fill="black" stroke="black" points="1032.29,-2121.92 1022.04,-2119.23 1028.38,-2127.72 1032.29,-2121.92"/>
<text text-anchor="middle" x="1556" y="-2390.3" font-family="Arial" font-size="14.00">Model is a Goods Nomenclature or Indent</text>
</g>
<!-- Save model -->
<g id="node3" class="node">
<title>Save model</title>
<polygon fill="white" stroke="black" points="1869,-638 1780,-638 1780,-602 1869,-602 1869,-638"/>
<text text-anchor="middle" x="1824.5" y="-616.3" font-family="Arial" font-size="14.00">Save model</text>
</g>
<!-- Start&#45;&gt;Save model -->
<g id="edge2" class="edge">
<title>Start&#45;&gt;Save model</title>
<path fill="none" stroke="black" d="M1862.36,-2668.72C1861.38,-2551.34 1855.3,-1858.82 1843.5,-1295 1838.24,-1043.64 1828.43,-739.66 1825.41,-648.26"/>
<polygon fill="black" stroke="black" points="1828.91,-648.06 1825.08,-638.18 1821.91,-648.29 1828.91,-648.06"/>
<text text-anchor="middle" x="1943.5" y="-1718.3" font-family="Arial" font-size="14.00">Model is Goods Nomenclature</text>
<text text-anchor="middle" x="1943.5" y="-1703.3" font-family="Arial" font-size="14.00">Description,</text>
<text text-anchor="middle" x="1943.5" y="-1688.3" font-family="Arial" font-size="14.00">Origin or Successor</text>
</g>
<!-- Ignore model -->
<g id="node4" class="node">
<title>Ignore model</title>
<polygon fill="white" stroke="black" points="1986.5,-2119 1890.5,-2119 1890.5,-2083 1986.5,-2083 1986.5,-2119"/>
<text text-anchor="middle" x="1938.5" y="-2097.3" font-family="Arial" font-size="14.00">Ignore model</text>
</g>
<!-- Start&#45;&gt;Ignore model -->
<g id="edge3" class="edge">
<title>Start&#45;&gt;Ignore model</title>
<path fill="none" stroke="black" d="M1864.73,-2668.84C1875.46,-2586.4 1921.73,-2230.88 1934.96,-2129.24"/>
<polygon fill="black" stroke="black" points="1938.45,-2129.53 1936.27,-2119.16 1931.51,-2128.63 1938.45,-2129.53"/>
<text text-anchor="middle" x="1974" y="-2390.3" font-family="Arial" font-size="14.00">Model is something else</text>
</g>
<!-- Violation is NIG30/31 -->
<g id="node5" class="node">
<title>Violation is NIG30/31</title>
<polygon fill="white" stroke="black" points="1584.5,-1331 1440.5,-1331 1440.5,-1295 1584.5,-1295 1584.5,-1331"/>
<text text-anchor="middle" x="1512.5" y="-1309.3" font-family="Arial" font-size="14.00">Violation is NIG30/31</text>
</g>
<!-- Find business rule violations&#45;&gt;Violation is NIG30/31 -->
<g id="edge4" class="edge">
<title>Find business rule violations&#45;&gt;Violation is NIG30/31</title>
<path fill="none" stroke="black" d="M1007.76,-2082.85C1074.26,-1981.56 1415.55,-1461.68 1495.66,-1339.66"/>
<polygon fill="black" stroke="black" points="1498.61,-1341.54 1501.17,-1331.26 1492.76,-1337.7 1498.61,-1341.54"/>
</g>
<!-- Violation is NIG22 -->
<g id="node10" class="node">
<title>Violation is NIG22</title>
<polygon fill="white" stroke="black" points="917,-1331 792,-1331 792,-1295 917,-1295 917,-1331"/>
<text text-anchor="middle" x="854.5" y="-1309.3" font-family="Arial" font-size="14.00">Violation is NIG22</text>
</g>
<!-- Find business rule violations&#45;&gt;Violation is NIG22 -->
<g id="edge11" class="edge">
<title>Find business rule violations&#45;&gt;Violation is NIG22</title>
<path fill="none" stroke="black" d="M993.86,-2082.95C985.02,-2026.24 955.51,-1838.83 927.5,-1684.5 904.14,-1555.8 872.85,-1402.66 860.18,-1341.35"/>
<polygon fill="black" stroke="black" points="863.56,-1340.41 858.11,-1331.33 856.71,-1341.83 863.56,-1340.41"/>
</g>
<!-- Footnote association still exists -->
<g id="node14" class="node">
<title>Footnote association still exists</title>
<polygon fill="white" stroke="black" points="1422,-1331 1219,-1331 1219,-1295 1422,-1295 1422,-1331"/>
<text text-anchor="middle" x="1320.5" y="-1309.3" font-family="Arial" font-size="14.00">Footnote association still exists</text>
</g>
<!-- Find business rule violations&#45;&gt;Footnote association still exists -->
<g id="edge18" class="edge">
<title>Find business rule violations&#45;&gt;Footnote association still exists</title>
<path fill="none" stroke="black" d="M1003.57,-2082.85C1045.2,-1981.86 1258.34,-1464.8 1309.47,-1340.77"/>
<polygon fill="black" stroke="black" points="1312.81,-1341.84 1313.39,-1331.26 1306.34,-1339.17 1312.81,-1341.84"/>
</g>
<!-- Violation is NIG34/35 -->
<g id="node15" class="node">
<title>Violation is NIG34/35</title>
<polygon fill="white" stroke="black" points="641.5,-1331 497.5,-1331 497.5,-1295 641.5,-1295 641.5,-1331"/>
<text text-anchor="middle" x="569.5" y="-1309.3" font-family="Arial" font-size="14.00">Violation is NIG34/35</text>
</g>
<!-- Find business rule violations&#45;&gt;Violation is NIG34/35 -->
<g id="edge20" class="edge">
<title>Find business rule violations&#45;&gt;Violation is NIG34/35</title>
<path fill="none" stroke="black" d="M987.18,-2082.85C932.26,-1981.76 650.86,-1463.76 583.84,-1340.4"/>
<polygon fill="black" stroke="black" points="586.72,-1338.37 578.88,-1331.26 580.57,-1341.72 586.72,-1338.37"/>
</g>
<!-- Violation is ME32 -->
<g id="node16" class="node">
<title>Violation is ME32</title>
<polygon fill="white" stroke="black" points="207.5,-1331 85.5,-1331 85.5,-1295 207.5,-1295 207.5,-1331"/>
<text text-anchor="middle" x="146.5" y="-1309.3" font-family="Arial" font-size="14.00">Violation is ME32</text>
</g>
<!-- Find business rule violations&#45;&gt;Violation is ME32 -->
<g id="edge22" class="edge">
<title>Find business rule violations&#45;&gt;Violation is ME32</title>
<path fill="none" stroke="black" d="M977.96,-2082.85C867.97,-1981.15 301.7,-1457.51 172.68,-1338.21"/>
<polygon fill="black" stroke="black" points="174.88,-1335.48 165.16,-1331.26 170.13,-1340.62 174.88,-1335.48"/>
</g>
<!-- Violation is ME7 -->
<g id="node19" class="node">
<title>Violation is ME7</title>
<polygon fill="white" stroke="black" points="773.5,-1331 659.5,-1331 659.5,-1295 773.5,-1295 773.5,-1331"/>
<text text-anchor="middle" x="716.5" y="-1309.3" font-family="Arial" font-size="14.00">Violation is ME7</text>
</g>
<!-- Find business rule violations&#45;&gt;Violation is ME7 -->
<g id="edge28" class="edge">
<title>Find business rule violations&#45;&gt;Violation is ME7</title>
<path fill="none" stroke="black" d="M991.12,-2082.89C973.18,-2025.98 913.38,-1838.03 858.5,-1684.5 812.14,-1554.81 751.58,-1401.71 727.28,-1340.87"/>
<polygon fill="black" stroke="black" points="730.4,-1339.24 723.43,-1331.26 723.9,-1341.84 730.4,-1339.24"/>
</g>
<!-- Violation is ME1 -->
<g id="node20" class="node">
<title>Violation is ME1</title>
<polygon fill="white" stroke="black" points="339.5,-1331 225.5,-1331 225.5,-1295 339.5,-1295 339.5,-1331"/>
<text text-anchor="middle" x="282.5" y="-1309.3" font-family="Arial" font-size="14.00">Violation is ME1</text>
</g>
<!-- Find business rule violations&#45;&gt;Violation is ME1 -->
<g id="edge30" class="edge">
<title>Find business rule violations&#45;&gt;Violation is ME1</title>
<path fill="none" stroke="black" d="M980.92,-2082.85C888.72,-1981.35 414.76,-1459.6 305.15,-1338.93"/>
<polygon fill="black" stroke="black" points="307.49,-1336.31 298.18,-1331.26 302.31,-1341.01 307.49,-1336.31"/>
</g>
<!-- Violation is ME71 -->
<g id="node21" class="node">
<title>Violation is ME71</title>
<polygon fill="white" stroke="black" points="1057.5,-1331 935.5,-1331 935.5,-1295 1057.5,-1295 1057.5,-1331"/>
<text text-anchor="middle" x="996.5" y="-1309.3" font-family="Arial" font-size="14.00">Violation is ME71</text>
</g>
<!-- Find business rule violations&#45;&gt;Violation is ME71 -->
<g id="edge32" class="edge">
<title>Find business rule violations&#45;&gt;Violation is ME71</title>
<path fill="none" stroke="black" d="M996.5,-2082.85C996.5,-1982.06 996.5,-1466.88 996.5,-1341.52"/>
<polygon fill="black" stroke="black" points="1000,-1341.26 996.5,-1331.26 993,-1341.26 1000,-1341.26"/>
</g>
<!-- Violation is NIG18 -->
<g id="node22" class="node">
<title>Violation is NIG18</title>
<polygon fill="white" stroke="black" points="1201,-1331 1076,-1331 1076,-1295 1201,-1295 1201,-1331"/>
<text text-anchor="middle" x="1138.5" y="-1309.3" font-family="Arial" font-size="14.00">Violation is NIG18</text>
</g>
<!-- Find business rule violations&#45;&gt;Violation is NIG18 -->
<g id="edge34" class="edge">
<title>Find business rule violations&#45;&gt;Violation is NIG18</title>
<path fill="none" stroke="black" d="M999.6,-2082.85C1017.83,-1981.96 1111.07,-1465.84 1133.6,-1341.14"/>
<polygon fill="black" stroke="black" points="1137.05,-1341.72 1135.38,-1331.26 1130.16,-1340.48 1137.05,-1341.72"/>
</g>
<!-- Violation is ME88 -->
<g id="node23" class="node">
<title>Violation is ME88</title>
<polygon fill="white" stroke="black" points="479.5,-1331 357.5,-1331 357.5,-1295 479.5,-1295 479.5,-1331"/>
<text text-anchor="middle" x="418.5" y="-1309.3" font-family="Arial" font-size="14.00">Violation is ME88</text>
</g>
<!-- Find business rule violations&#45;&gt;Violation is ME88 -->
<g id="edge36" class="edge">
<title>Find business rule violations&#45;&gt;Violation is ME88</title>
<path fill="none" stroke="black" d="M983.89,-2082.85C909.4,-1981.56 527.1,-1461.68 437.37,-1339.66"/>
<polygon fill="black" stroke="black" points="439.94,-1337.24 431.19,-1331.26 434.3,-1341.39 439.94,-1337.24"/>
</g>
<!-- No violations on any measure -->
<g id="node24" class="node">
<title>No violations on any measure</title>
<polygon fill="white" stroke="black" points="1835,-1331 1640,-1331 1640,-1295 1835,-1295 1835,-1331"/>
<text text-anchor="middle" x="1737.5" y="-1309.3" font-family="Arial" font-size="14.00">No violations on any measure</text>
</g>
<!-- Find business rule violations&#45;&gt;No violations on any measure -->
<g id="edge39" class="edge">
<title>Find business rule violations&#45;&gt;No violations on any measure</title>
<path fill="none" stroke="black" d="M1053.56,-2082.97C1177.75,-2042.89 1473.66,-1930.5 1626.5,-1729.5 1719.59,-1607.08 1734.74,-1412.67 1737.1,-1341.37"/>
<polygon fill="black" stroke="black" points="1740.61,-1341.1 1737.38,-1331.01 1733.62,-1340.91 1740.61,-1341.1"/>
</g>
<!-- Update measure end date -->
<g id="node6" class="node">
<title>Update measure end date</title>
<polygon fill="white" stroke="black" points="1544,-638 1371,-638 1371,-602 1544,-602 1544,-638"/>
<text text-anchor="middle" x="1457.5" y="-616.3" font-family="Arial" font-size="14.00">Update measure end date</text>
</g>
<!-- Violation is NIG30/31&#45;&gt;Update measure end date -->
<g id="edge5" class="edge">
<title>Violation is NIG30/31&#45;&gt;Update measure end date</title>
<path fill="none" stroke="black" d="M1508.82,-1294.74C1498.68,-1246.23 1470.43,-1104.44 1460.5,-985 1450.07,-859.6 1454.05,-709.08 1456.33,-648.36"/>
<polygon fill="black" stroke="black" points="1459.84,-648.23 1456.74,-638.1 1452.85,-647.95 1459.84,-648.23"/>
<text text-anchor="middle" x="1529.5" y="-966.3" font-family="Arial" font-size="14.00">Updated to end sooner</text>
</g>
<!-- Update measure start date -->
<g id="node8" class="node">
<title>Update measure start date</title>
<polygon fill="white" stroke="black" points="1350,-638 1173,-638 1173,-602 1350,-602 1350,-638"/>
<text text-anchor="middle" x="1261.5" y="-616.3" font-family="Arial" font-size="14.00">Update measure start date</text>
</g>
<!-- Violation is NIG30/31&#45;&gt;Update measure start date -->
<g id="edge7" class="edge">
<title>Violation is NIG30/31&#45;&gt;Update measure start date</title>
<path fill="none" stroke="black" d="M1500.05,-1294.94C1466.49,-1248.06 1373.54,-1112.27 1327.5,-985 1283.81,-864.22 1268.1,-710 1263.32,-648.3"/>
<polygon fill="black" stroke="black" points="1266.8,-647.93 1262.57,-638.22 1259.82,-648.45 1266.8,-647.93"/>
<text text-anchor="middle" x="1391" y="-966.3" font-family="Arial" font-size="14.00">Updated to start later</text>
</g>
<!-- Delete measure -->
<g id="node9" class="node">
<title>Delete measure</title>
<polygon fill="white" stroke="black" points="602,-638 489,-638 489,-602 602,-602 602,-638"/>
<text text-anchor="middle" x="545.5" y="-616.3" font-family="Arial" font-size="14.00">Delete measure</text>
</g>
<!-- Violation is NIG30/31&#45;&gt;Delete measure -->
<g id="edge9" class="edge">
<title>Violation is NIG30/31&#45;&gt;Delete measure</title>
<path fill="none" stroke="black" d="M1493.15,-1294.74C1433.14,-1241.52 1244.09,-1076.29 1075.5,-955 898.17,-827.43 672.85,-694.44 584,-643.06"/>
<polygon fill="black" stroke="black" points="585.75,-640.03 575.34,-638.06 582.25,-646.09 585.75,-640.03"/>
<text text-anchor="middle" x="1169.5" y="-966.3" font-family="Arial" font-size="14.00">No longer overlaps</text>
</g>
<!-- Re&#45;run business rules -->
<g id="node7" class="node">
<title>Re&#45;run business rules</title>
<polygon fill="white" stroke="black" points="988.5,-139 840.5,-139 840.5,-103 988.5,-103 988.5,-139"/>
<text text-anchor="middle" x="914.5" y="-117.3" font-family="Arial" font-size="14.00">Re&#45;run business rules</text>
</g>
<!-- Update measure end date&#45;&gt;Re&#45;run business rules -->
<g id="edge6" class="edge">
<title>Update measure end date&#45;&gt;Re&#45;run business rules</title>
<path fill="none" stroke="black" d="M1438.81,-601.89C1357.55,-527.51 1034.83,-232.14 940.52,-145.81"/>
<polygon fill="black" stroke="black" points="942.85,-143.21 933.11,-139.04 938.13,-148.37 942.85,-143.21"/>
</g>
<!-- Re&#45;run business rules&#45;&gt;Find business rule violations -->
<g id="edge38" class="edge">
<title>Re&#45;run business rules&#45;&gt;Find business rule violations</title>
<path fill="none" stroke="black" d="M955.95,-139.04C1072.91,-189.53 1406.48,-350.64 1552.5,-601 1632.43,-738.05 1588.26,-796.67 1598.5,-955 1609.29,-1121.78 1648.81,-1173.29 1593.5,-1331 1471.92,-1677.68 1126.41,-1990.04 1024.88,-2076.43"/>
<polygon fill="black" stroke="black" points="1022.55,-2073.81 1017.18,-2082.95 1027.08,-2079.16 1022.55,-2073.81"/>
</g>
<!-- Update measure start date&#45;&gt;Re&#45;run business rules -->
<g id="edge8" class="edge">
<title>Update measure start date&#45;&gt;Re&#45;run business rules</title>
<path fill="none" stroke="black" d="M1249.56,-601.89C1197.94,-527.96 993.88,-235.69 932.23,-147.39"/>
<polygon fill="black" stroke="black" points="934.99,-145.23 926.39,-139.04 929.25,-149.24 934.99,-145.23"/>
</g>
<!-- Delete measure&#45;&gt;Re&#45;run business rules -->
<g id="edge10" class="edge">
<title>Delete measure&#45;&gt;Re&#45;run business rules</title>
<path fill="none" stroke="black" d="M558.2,-601.89C613.15,-527.89 830.53,-235.1 895.84,-147.13"/>
<polygon fill="black" stroke="black" points="898.7,-149.15 901.85,-139.04 893.08,-144.98 898.7,-149.15"/>
</g>
<!-- Update footnote association\nend date -->
<g id="node11" class="node">
<title>Update footnote association\nend date</title>
<polygon fill="white" stroke="black" points="1006.5,-639 822.5,-639 822.5,-601 1006.5,-601 1006.5,-639"/>
<text text-anchor="middle" x="914.5" y="-623.8" font-family="Arial" font-size="14.00">Update footnote association</text>
<text text-anchor="middle" x="914.5" y="-608.8" font-family="Arial" font-size="14.00">end date</text>
</g>
<!-- Violation is NIG22&#45;&gt;Update footnote association\nend date -->
<g id="edge12" class="edge">
<title>Violation is NIG22&#45;&gt;Update footnote association\nend date</title>
<path fill="none" stroke="black" d="M848.07,-1294.88C829.57,-1243.39 778.85,-1085.48 800.5,-955 820.09,-836.97 876.12,-704.66 901.61,-648.54"/>
<polygon fill="black" stroke="black" points="904.87,-649.82 905.85,-639.27 898.5,-646.91 904.87,-649.82"/>
<text text-anchor="middle" x="869.5" y="-966.3" font-family="Arial" font-size="14.00">Updated to end sooner</text>
</g>
<!-- Update footnote association\nstart date -->
<g id="node12" class="node">
<title>Update footnote association\nstart date</title>
<polygon fill="white" stroke="black" points="804.5,-639 620.5,-639 620.5,-601 804.5,-601 804.5,-639"/>
<text text-anchor="middle" x="712.5" y="-623.8" font-family="Arial" font-size="14.00">Update footnote association</text>
<text text-anchor="middle" x="712.5" y="-608.8" font-family="Arial" font-size="14.00">start date</text>
</g>
<!-- Violation is NIG22&#45;&gt;Update footnote association\nstart date -->
<g id="edge14" class="edge">
<title>Violation is NIG22&#45;&gt;Update footnote association\nstart date</title>
<path fill="none" stroke="black" d="M840.04,-1294.7C802.31,-1248.29 701.38,-1115.65 666.5,-985 633.81,-862.54 679.73,-710.53 701.81,-648.9"/>
<polygon fill="black" stroke="black" points="705.23,-649.73 705.38,-639.13 698.66,-647.32 705.23,-649.73"/>
<text text-anchor="middle" x="730" y="-966.3" font-family="Arial" font-size="14.00">Updated to start later</text>
</g>
<!-- Delete association -->
<g id="node13" class="node">
<title>Delete association</title>
<polygon fill="white" stroke="black" points="1153,-638 1026,-638 1026,-602 1153,-602 1153,-638"/>
<text text-anchor="middle" x="1089.5" y="-616.3" font-family="Arial" font-size="14.00">Delete association</text>
</g>
<!-- Violation is NIG22&#45;&gt;Delete association -->
<g id="edge16" class="edge">
<title>Violation is NIG22&#45;&gt;Delete association</title>
<path fill="none" stroke="black" d="M858.86,-1294.73C872.08,-1242.81 913.57,-1083.83 957.5,-955 997.18,-838.65 1054.03,-703.4 1078.07,-647.38"/>
<polygon fill="black" stroke="black" points="1081.3,-648.74 1082.04,-638.17 1074.87,-645.97 1081.3,-648.74"/>
<text text-anchor="middle" x="1014.5" y="-966.3" font-family="Arial" font-size="14.00">No longer overlaps</text>
</g>
<!-- Update footnote association\nend date&#45;&gt;Re&#45;run business rules -->
<g id="edge13" class="edge">
<title>Update footnote association\nend date&#45;&gt;Re&#45;run business rules</title>
<path fill="none" stroke="black" d="M914.5,-600.72C914.5,-525.49 914.5,-239.5 914.5,-149.37"/>
<polygon fill="black" stroke="black" points="918,-149.15 914.5,-139.15 911,-149.15 918,-149.15"/>
</g>
<!-- Update footnote association\nstart date&#45;&gt;Re&#45;run business rules -->
<g id="edge15" class="edge">
<title>Update footnote association\nstart date&#45;&gt;Re&#45;run business rules</title>
<path fill="none" stroke="black" d="M719.93,-600.72C750.6,-525.26 867.46,-237.75 903.71,-148.55"/>
<polygon fill="black" stroke="black" points="907.01,-149.73 907.53,-139.15 900.52,-147.09 907.01,-149.73"/>
</g>
<!-- Delete association&#45;&gt;Re&#45;run business rules -->
<g id="edge17" class="edge">
<title>Delete association&#45;&gt;Re&#45;run business rules</title>
<path fill="none" stroke="black" d="M1083.48,-601.89C1057.55,-528.26 955.36,-238.05 923.82,-148.47"/>
<polygon fill="black" stroke="black" points="927.12,-147.31 920.5,-139.04 920.52,-149.63 927.12,-147.31"/>
</g>
<!-- Footnote association still exists&#45;&gt;Delete association -->
<g id="edge19" class="edge">
<title>Footnote association still exists&#45;&gt;Delete association</title>
<path fill="none" stroke="black" d="M1309.31,-1294.74C1279.13,-1247.36 1195.5,-1110.43 1153.5,-985 1112.76,-863.32 1096.61,-709.61 1091.5,-648.17"/>
<polygon fill="black" stroke="black" points="1094.98,-647.82 1090.69,-638.13 1088,-648.38 1094.98,-647.82"/>
</g>
<!-- Violation is NIG34/35&#45;&gt;Delete measure -->
<g id="edge21" class="edge">
<title>Violation is NIG34/35&#45;&gt;Delete measure</title>
<path fill="none" stroke="black" d="M568.91,-1294.92C565.7,-1202.51 550.41,-762.31 546.44,-648.11"/>
<polygon fill="black" stroke="black" points="549.94,-647.97 546.09,-638.1 542.94,-648.22 549.94,-647.97"/>
</g>
<!-- Violation is ME32&#45;&gt;Delete measure -->
<g id="edge27" class="edge">
<title>Violation is ME32&#45;&gt;Delete measure</title>
<path fill="none" stroke="black" d="M157.5,-1294.82C188.34,-1246.53 277.9,-1105.25 347.5,-985 419.7,-860.26 500.16,-707.83 531.73,-647.44"/>
<polygon fill="black" stroke="black" points="535.01,-648.72 536.54,-638.24 528.81,-645.48 535.01,-648.72"/>
<text text-anchor="middle" x="432.5" y="-973.8" font-family="Arial" font-size="14.00">Measure overlaps with</text>
<text text-anchor="middle" x="432.5" y="-958.8" font-family="Arial" font-size="14.00">full range of indent</text>
</g>
<!-- Update measure end date\nto be indent validity start -->
<g id="node17" class="node">
<title>Update measure end date\nto be indent validity start</title>
<polygon fill="white" stroke="black" points="173,-639 0,-639 0,-601 173,-601 173,-639"/>
<text text-anchor="middle" x="86.5" y="-623.8" font-family="Arial" font-size="14.00">Update measure end date</text>
<text text-anchor="middle" x="86.5" y="-608.8" font-family="Arial" font-size="14.00">to be indent validity start</text>
</g>
<!-- Violation is ME32&#45;&gt;Update measure end date\nto be indent validity start -->
<g id="edge23" class="edge">
<title>Violation is ME32&#45;&gt;Update measure end date\nto be indent validity start</title>
<path fill="none" stroke="black" d="M139.63,-1294.65C120.98,-1246.5 69.64,-1106.66 52.5,-985 34.96,-860.49 64.93,-710.71 79.38,-649.33"/>
<polygon fill="black" stroke="black" points="82.87,-649.79 81.8,-639.25 76.06,-648.16 82.87,-649.79"/>
<text text-anchor="middle" x="120.5" y="-973.8" font-family="Arial" font-size="14.00">Measure overlaps with</text>
<text text-anchor="middle" x="120.5" y="-958.8" font-family="Arial" font-size="14.00">start of indent</text>
</g>
<!-- Update measure start date\nto be indent validity end -->
<g id="node18" class="node">
<title>Update measure start date\nto be indent validity end</title>
<polygon fill="white" stroke="black" points="437,-639 260,-639 260,-601 437,-601 437,-639"/>
<text text-anchor="middle" x="348.5" y="-623.8" font-family="Arial" font-size="14.00">Update measure start date</text>
<text text-anchor="middle" x="348.5" y="-608.8" font-family="Arial" font-size="14.00">to be indent validity end</text>
</g>
<!-- Violation is ME32&#45;&gt;Update measure start date\nto be indent validity end -->
<g id="edge25" class="edge">
<title>Violation is ME32&#45;&gt;Update measure start date\nto be indent validity end</title>
<path fill="none" stroke="black" d="M148.32,-1294.98C154.12,-1243.13 174.08,-1082.88 211.5,-955 245.87,-837.54 307.52,-704.93 334.83,-648.64"/>
<polygon fill="black" stroke="black" points="338.13,-649.86 339.37,-639.34 331.84,-646.79 338.13,-649.86"/>
<text text-anchor="middle" x="279.5" y="-973.8" font-family="Arial" font-size="14.00">Measure overlaps with</text>
<text text-anchor="middle" x="279.5" y="-958.8" font-family="Arial" font-size="14.00">end of indent</text>
</g>
<!-- Update measure end date\nto be indent validity start&#45;&gt;Re&#45;run business rules -->
<g id="edge24" class="edge">
<title>Update measure end date\nto be indent validity start&#45;&gt;Re&#45;run business rules</title>
<path fill="none" stroke="black" d="M116.95,-600.72C244.71,-524.04 737.3,-228.36 877.23,-144.37"/>
<polygon fill="black" stroke="black" points="879.16,-147.29 885.93,-139.15 875.56,-141.29 879.16,-147.29"/>
</g>
<!-- Update measure start date\nto be indent validity end&#45;&gt;Re&#45;run business rules -->
<g id="edge26" class="edge">
<title>Update measure start date\nto be indent validity end&#45;&gt;Re&#45;run business rules</title>
<path fill="none" stroke="black" d="M369.32,-600.72C456.13,-524.5 789.35,-231.9 887.28,-145.9"/>
<polygon fill="black" stroke="black" points="889.77,-148.37 894.97,-139.15 885.15,-143.11 889.77,-148.37"/>
</g>
<!-- Violation is ME7&#45;&gt;Delete measure -->
<g id="edge29" class="edge">
<title>Violation is ME7&#45;&gt;Delete measure</title>
<path fill="none" stroke="black" d="M712.27,-1294.92C689.4,-1202.51 580.47,-762.31 552.21,-648.11"/>
<polygon fill="black" stroke="black" points="555.53,-646.97 549.73,-638.1 548.74,-648.65 555.53,-646.97"/>
</g>
<!-- Violation is ME1&#45;&gt;Delete measure -->
<g id="edge31" class="edge">
<title>Violation is ME1&#45;&gt;Delete measure</title>
<path fill="none" stroke="black" d="M299.18,-1294.67C342.28,-1248.69 457.4,-1117.98 506.5,-985 550.52,-865.76 549.56,-710.67 547.04,-648.52"/>
<polygon fill="black" stroke="black" points="550.53,-648.19 546.58,-638.36 543.53,-648.51 550.53,-648.19"/>
</g>
<!-- Violation is ME71&#45;&gt;Delete association -->
<g id="edge33" class="edge">
<title>Violation is ME71&#45;&gt;Delete association</title>
<path fill="none" stroke="black" d="M1001.92,-1294.86C1016.89,-1246.67 1058.78,-1105.62 1075.5,-985 1092.79,-860.27 1091.65,-709.37 1090.29,-648.46"/>
<polygon fill="black" stroke="black" points="1093.79,-648.07 1090.04,-638.16 1086.79,-648.25 1093.79,-648.07"/>
</g>
<!-- Violation is NIG18&#45;&gt;Delete association -->
<g id="edge35" class="edge">
<title>Violation is NIG18&#45;&gt;Delete association</title>
<path fill="none" stroke="black" d="M1137.29,-1294.92C1130.74,-1202.51 1099.52,-762.31 1091.42,-648.11"/>
<polygon fill="black" stroke="black" points="1094.91,-647.83 1090.71,-638.1 1087.93,-648.33 1094.91,-647.83"/>
</g>
<!-- Violation is ME88&#45;&gt;Delete measure -->
<g id="edge37" class="edge">
<title>Violation is ME88&#45;&gt;Delete measure</title>
<path fill="none" stroke="black" d="M426.5,-1294.77C448.26,-1246.92 508.45,-1107.79 531.5,-985 554.73,-861.24 550.3,-709.8 547.18,-648.61"/>
<polygon fill="black" stroke="black" points="550.65,-648.05 546.62,-638.26 543.66,-648.43 550.65,-648.05"/>
</g>
<!-- No violations on any measure&#45;&gt;Save model -->
<g id="edge40" class="edge">
<title>No violations on any measure&#45;&gt;Save model</title>
<path fill="none" stroke="black" d="M1739.65,-1294.92C1751.29,-1202.51 1806.71,-762.31 1821.09,-648.11"/>
<polygon fill="black" stroke="black" points="1824.57,-648.46 1822.35,-638.1 1817.62,-647.59 1824.57,-648.46"/>
</g>
</g>
</svg>
