<?xml version="1.0" encoding="UTF-8" standalone="no"?>
<!DOCTYPE svg PUBLIC "-//W3C//DTD SVG 1.1//EN"
 "http://www.w3.org/Graphics/SVG/1.1/DTD/svg11.dtd">
<!-- Generated by graphviz version 2.43.0 (0)
 -->
<!-- Title: WorkflowStates Pages: 1 -->
<svg width="565pt" height="98pt"
 viewBox="0.00 0.00 565.36 98.00" xmlns="http://www.w3.org/2000/svg" xmlns:xlink="http://www.w3.org/1999/xlink">
<g id="graph0" class="graph" transform="scale(1 1) rotate(0) translate(4 94)">
<title>WorkflowStates</title>
<polygon fill="white" stroke="transparent" points="-4,4 -4,-94 561.36,-94 561.36,4 -4,4"/>
<!-- editing -->
<g id="node1" class="node">
<title>editing</title>
<ellipse fill="white" stroke="black" cx="36.4" cy="-72" rx="36.29" ry="18"/>
<text text-anchor="middle" x="36.4" y="-68.3" font-family="Arial" font-size="14.00">editing</text>
</g>
<!-- proposed -->
<g id="node2" class="node">
<title>proposed</title>
<ellipse fill="white" stroke="black" cx="156.24" cy="-72" rx="47.39" ry="18"/>
<text text-anchor="middle" x="156.24" y="-68.3" font-family="Arial" font-size="14.00">proposed</text>
</g>
<!-- editing&#45;&gt;proposed -->
<g id="edge1" class="edge">
<title>editing&#45;&gt;proposed</title>
<path fill="none" stroke="black" d="M70.74,-66C70.74,-66 101.16,-66 101.16,-66"/>
<polygon fill="black" stroke="black" points="101.16,-69.5 111.16,-66 101.16,-62.5 101.16,-69.5"/>
</g>
<!-- archived -->
<g id="node3" class="node">
<title>archived</title>
<ellipse fill="white" stroke="black" cx="156.24" cy="-18" rx="44.39" ry="18"/>
<text text-anchor="middle" x="156.24" y="-14.3" font-family="Arial" font-size="14.00">archived</text>
</g>
<!-- editing&#45;&gt;archived -->
<g id="edge2" class="edge">
<title>editing&#45;&gt;archived</title>
<path fill="none" stroke="black" d="M24.36,-54.97C24.36,-37.23 24.36,-12 24.36,-12 24.36,-12 104.51,-12 104.51,-12"/>
<polygon fill="black" stroke="black" points="104.51,-15.5 114.51,-12 104.51,-8.5 104.51,-15.5"/>
</g>
<!-- proposed&#45;&gt;editing -->
<g id="edge5" class="edge">
<title>proposed&#45;&gt;editing</title>
<path fill="none" stroke="black" d="M111.27,-78C111.27,-78 80.75,-78 80.75,-78"/>
<polygon fill="black" stroke="black" points="80.75,-74.5 70.75,-78 80.75,-81.5 80.75,-74.5"/>
</g>
<!-- approved -->
<g id="node4" class="node">
<title>approved</title>
<ellipse fill="white" stroke="black" cx="287.13" cy="-72" rx="47.39" ry="18"/>
<text text-anchor="middle" x="287.13" y="-68.3" font-family="Arial" font-size="14.00">approved</text>
</g>
<!-- proposed&#45;&gt;approved -->
<g id="edge4" class="edge">
<title>proposed&#45;&gt;approved</title>
<path fill="none" stroke="black" d="M203.86,-72C203.86,-72 229.32,-72 229.32,-72"/>
<polygon fill="black" stroke="black" points="229.32,-75.5 239.32,-72 229.32,-68.5 229.32,-75.5"/>
</g>
<!-- archived&#45;&gt;editing -->
<g id="edge3" class="edge">
<title>archived&#45;&gt;editing</title>
<path fill="none" stroke="black" d="M114.31,-24C84.36,-24 49.36,-24 49.36,-24 49.36,-24 49.36,-44.94 49.36,-44.94"/>
<polygon fill="black" stroke="black" points="45.86,-44.94 49.36,-54.94 52.86,-44.94 45.86,-44.94"/>
</g>
<!-- sent -->
<g id="node5" class="node">
<title>sent</title>
<ellipse fill="white" stroke="black" cx="397.87" cy="-72" rx="27.1" ry="18"/>
<text text-anchor="middle" x="397.87" y="-68.3" font-family="Arial" font-size="14.00">sent</text>
</g>
<!-- approved&#45;&gt;sent -->
<g id="edge6" class="edge">
<title>approved&#45;&gt;sent</title>
<path fill="none" stroke="black" d="M334.74,-72C334.74,-72 360.43,-72 360.43,-72"/>
<polygon fill="black" stroke="black" points="360.43,-75.5 370.43,-72 360.43,-68.5 360.43,-75.5"/>
</g>
<!-- published -->
<g id="node6" class="node">
<title>published</title>
<ellipse fill="white" stroke="black" cx="509.27" cy="-72" rx="48.19" ry="18"/>
<text text-anchor="middle" x="509.27" y="-68.3" font-family="Arial" font-size="14.00">published</text>
</g>
<!-- sent&#45;&gt;published -->
<g id="edge7" class="edge">
<title>sent&#45;&gt;published</title>
<path fill="none" stroke="black" d="M425.41,-72C425.41,-72 450.79,-72 450.79,-72"/>
<polygon fill="black" stroke="black" points="450.79,-75.5 460.79,-72 450.79,-68.5 450.79,-75.5"/>
</g>
<!-- errored -->
<g id="node7" class="node">
<title>errored</title>
<ellipse fill="white" stroke="black" cx="509.27" cy="-18" rx="38.99" ry="18"/>
<text text-anchor="middle" x="509.27" y="-14.3" font-family="Arial" font-size="14.00">errored</text>
</g>
<!-- sent&#45;&gt;errored -->
<g id="edge8" class="edge">
<title>sent&#45;&gt;errored</title>
<path fill="none" stroke="black" d="M398.36,-53.72C398.36,-38.05 398.36,-18 398.36,-18 398.36,-18 460.17,-18 460.17,-18"/>
<polygon fill="black" stroke="black" points="460.17,-21.5 470.17,-18 460.17,-14.5 460.17,-21.5"/>
</g>
</g>
</svg>
