<?xml version="1.0" encoding="UTF-8" standalone="no"?>
<!DOCTYPE svg PUBLIC "-//W3C//DTD SVG 1.1//EN"
 "http://www.w3.org/Graphics/SVG/1.1/DTD/svg11.dtd">
<!-- Generated by graphviz version 2.43.0 (0)
 -->
<!-- Title: ParentCodeDeleted Pages: 1 -->
<svg width="130pt" height="216pt"
 viewBox="0.00 0.00 130.00 215.84" xmlns="http://www.w3.org/2000/svg" xmlns:xlink="http://www.w3.org/1999/xlink">
<g id="graph0" class="graph" transform="scale(1 1) rotate(0) translate(4 211.84)">
<title>ParentCodeDeleted</title>
<polygon fill="white" stroke="transparent" points="-4,4 -4,-211.84 126,-211.84 126,4 -4,4"/>
<!-- C1 -->
<g id="node1" class="node">
<title>C1</title>
<ellipse fill="white" stroke="black" cx="60.5" cy="-186.34" rx="21.5" ry="21.5"/>
<text text-anchor="middle" x="60.5" y="-182.64" font-family="Arial" font-size="14.00">C1</text>
</g>
<!-- C2 -->
<g id="node2" class="node">
<title>C2</title>
<ellipse fill="white" stroke="black" cx="21.5" cy="-107.34" rx="21.5" ry="21.5"/>
<text text-anchor="middle" x="21.5" y="-103.64" font-family="Arial" font-size="14.00">C2</text>
</g>
<!-- C1&#45;&#45;C2 -->
<g id="edge1" class="edge">
<title>C1&#45;&#45;C2</title>
<path fill="none" stroke="black" d="M51.06,-166.7C44.93,-154.59 36.97,-138.88 30.85,-126.8"/>
</g>
<!-- C3 -->
<g id="node3" class="node">
<title>C3</title>
<ellipse fill="pink" stroke="red" cx="100.5" cy="-107.34" rx="21.5" ry="21.5"/>
<text text-anchor="middle" x="100.5" y="-103.64" font-family="Arial" font-size="14.00">C3</text>
</g>
<!-- C1&#45;&#45;C3 -->
<g id="edge2" class="edge">
<title>C1&#45;&#45;C3</title>
<path fill="none" stroke="black" d="M70.18,-166.7C76.47,-154.59 84.64,-138.88 90.91,-126.8"/>
</g>
<!-- C2&#45;&#45;C2 -->
<g id="edge5" class="edge">
<title>C2&#45;&#45;C2</title>
<path fill="none" stroke="transparent" d="M38.55,-120.67C49.93,-124.43 61,-119.98 61,-107.34 61,-94.69 49.93,-90.25 38.55,-94"/>
<text text-anchor="middle" x="45.05" y="-82.8" font-family="Arial" font-size="14.00">M</text>
</g>
<!-- C4 -->
<g id="node4" class="node">
<title>C4</title>
<ellipse fill="white" stroke="black" cx="60.5" cy="-28.34" rx="21.5" ry="21.5"/>
<text text-anchor="middle" x="60.5" y="-24.64" font-family="Arial" font-size="14.00">C4</text>
</g>
<!-- C2&#45;&#45;C4 -->
<g id="edge4" class="edge">
<title>C2&#45;&#45;C4</title>
<path fill="none" stroke="black" stroke-dasharray="1,5" d="M30.94,-87.7C37.07,-75.59 45.03,-59.88 51.15,-47.8"/>
</g>
<!-- C3&#45;&#45;C4 -->
<g id="edge3" class="edge">
<title>C3&#45;&#45;C4</title>
<path fill="none" stroke="black" d="M90.82,-87.7C84.53,-75.59 76.36,-59.88 70.09,-47.8"/>
</g>
<!-- C4&#45;&#45;C4 -->
<g id="edge6" class="edge">
<title>C4&#45;&#45;C4</title>
<path fill="none" stroke="transparent" d="M77.55,-41.67C88.93,-45.43 100,-40.98 100,-28.34 100,-15.69 88.93,-11.25 77.55,-15"/>
<text text-anchor="middle" x="84.05" y="-3.8" font-family="Arial" font-size="14.00">M</text>
</g>
</g>
</svg>
