<?xml version="1.0" encoding="UTF-8" standalone="no"?>
<!DOCTYPE svg PUBLIC "-//W3C//DTD SVG 1.1//EN"
 "http://www.w3.org/Graphics/SVG/1.1/DTD/svg11.dtd">
<!-- Generated by graphviz version 2.40.1 (20161225.0304)
 -->
<!-- Title: WorkflowStates Pages: 1 -->
<svg width="593pt" height="98pt"
 viewBox="0.00 0.00 592.66 98.00" xmlns="http://www.w3.org/2000/svg" xmlns:xlink="http://www.w3.org/1999/xlink">
<g id="graph0" class="graph" transform="scale(1 1) rotate(0) translate(4 94)">
<title>WorkflowStates</title>
<polygon fill="#ffffff" stroke="transparent" points="-4,4 -4,-94 588.6609,-94 588.6609,4 -4,4"/>
<!-- editing -->
<g id="node1" class="node">
<title>editing</title>
<ellipse fill="#ffffff" stroke="#000000" cx="38.3466" cy="-72" rx="38.1938" ry="18"/>
<text text-anchor="middle" x="38.3466" y="-68.3" font-family="Arial" font-size="14.00" fill="#000000">editing</text>
</g>
<!-- proposed -->
<g id="node2" class="node">
<title>proposed</title>
<ellipse fill="#ffffff" stroke="#000000" cx="163.3887" cy="-72" rx="50.8918" ry="18"/>
<text text-anchor="middle" x="163.3887" y="-68.3" font-family="Arial" font-size="14.00" fill="#000000">proposed</text>
</g>
<!-- editing&#45;&gt;proposed -->
<g id="edge1" class="edge">
<title>editing&#45;&gt;proposed</title>
<path fill="none" stroke="#000000" d="M74.514,-66C74.514,-66 105.2007,-66 105.2007,-66"/>
<polygon fill="#000000" stroke="#000000" points="105.2007,-69.5001 115.2007,-66 105.2006,-62.5001 105.2007,-69.5001"/>
</g>
<!-- archived -->
<g id="node3" class="node">
<title>archived</title>
<ellipse fill="#ffffff" stroke="#000000" cx="163.3887" cy="-18" rx="46.5926" ry="18"/>
<text text-anchor="middle" x="163.3887" y="-14.3" font-family="Arial" font-size="14.00" fill="#000000">archived</text>
</g>
<!-- editing&#45;&gt;archived -->
<g id="edge2" class="edge">
<title>editing&#45;&gt;archived</title>
<path fill="none" stroke="#000000" d="M25.6609,-54.9669C25.6609,-37.2283 25.6609,-12 25.6609,-12 25.6609,-12 109.0526,-12 109.0526,-12"/>
<polygon fill="#000000" stroke="#000000" points="109.0527,-15.5001 119.0526,-12 109.0526,-8.5001 109.0527,-15.5001"/>
</g>
<!-- proposed&#45;&gt;editing -->
<g id="edge5" class="edge">
<title>proposed&#45;&gt;editing</title>
<path fill="none" stroke="#000000" d="M115.4018,-78C115.4018,-78 84.745,-78 84.745,-78"/>
<polygon fill="#000000" stroke="#000000" points="84.745,-74.5001 74.745,-78 84.7449,-81.5001 84.745,-74.5001"/>
</g>
<!-- approved -->
<g id="node4" class="node">
<title>approved</title>
<ellipse fill="#ffffff" stroke="#000000" cx="300.7797" cy="-72" rx="50.8918" ry="18"/>
<text text-anchor="middle" x="300.7797" y="-68.3" font-family="Arial" font-size="14.00" fill="#000000">approved</text>
</g>
<!-- proposed&#45;&gt;approved -->
<g id="edge4" class="edge">
<title>proposed&#45;&gt;approved</title>
<path fill="none" stroke="#000000" d="M214.1577,-72C214.1577,-72 239.7607,-72 239.7607,-72"/>
<polygon fill="#000000" stroke="#000000" points="239.7607,-75.5001 249.7607,-72 239.7607,-68.5001 239.7607,-75.5001"/>
</g>
<!-- archived&#45;&gt;editing -->
<g id="edge3" class="edge">
<title>archived&#45;&gt;editing</title>
<path fill="none" stroke="#000000" d="M119.2309,-24C88.0011,-24 51.6609,-24 51.6609,-24 51.6609,-24 51.6609,-44.9418 51.6609,-44.9418"/>
<polygon fill="#000000" stroke="#000000" points="48.161,-44.9418 51.6609,-54.9418 55.161,-44.9419 48.161,-44.9418"/>
</g>
<!-- sent -->
<g id="node5" class="node">
<title>sent</title>
<ellipse fill="#ffffff" stroke="#000000" cx="416.0727" cy="-72" rx="28.6953" ry="18"/>
<text text-anchor="middle" x="416.0727" y="-68.3" font-family="Arial" font-size="14.00" fill="#000000">sent</text>
</g>
<!-- approved&#45;&gt;sent -->
<g id="edge6" class="edge">
<title>approved&#45;&gt;sent</title>
<path fill="none" stroke="#000000" d="M351.6845,-72C351.6845,-72 377.2443,-72 377.2443,-72"/>
<polygon fill="#000000" stroke="#000000" points="377.2443,-75.5001 387.2443,-72 377.2443,-68.5001 377.2443,-75.5001"/>
</g>
<!-- published -->
<g id="node6" class="node">
<title>published</title>
<ellipse fill="#ffffff" stroke="#000000" cx="532.6655" cy="-72" rx="51.9908" ry="18"/>
<text text-anchor="middle" x="532.6655" y="-68.3" font-family="Arial" font-size="14.00" fill="#000000">published</text>
</g>
<!-- sent&#45;&gt;published -->
<g id="edge7" class="edge">
<title>sent&#45;&gt;published</title>
<path fill="none" stroke="#000000" d="M444.8934,-72C444.8934,-72 470.5499,-72 470.5499,-72"/>
<polygon fill="#000000" stroke="#000000" points="470.5499,-75.5001 480.5499,-72 470.5499,-68.5001 470.5499,-75.5001"/>
</g>
<!-- errored -->
<g id="node7" class="node">
<title>errored</title>
<ellipse fill="#ffffff" stroke="#000000" cx="532.6655" cy="-18" rx="40.8928" ry="18"/>
<text text-anchor="middle" x="532.6655" y="-14.3" font-family="Arial" font-size="14.00" fill="#000000">errored</text>
</g>
<!-- sent&#45;&gt;errored -->
<g id="edge8" class="edge">
<title>sent&#45;&gt;errored</title>
<path fill="none" stroke="#000000" d="M416.6609,-53.7181C416.6609,-38.0522 416.6609,-18 416.6609,-18 416.6609,-18 481.44,-18 481.44,-18"/>
<polygon fill="#000000" stroke="#000000" points="481.44,-21.5001 491.44,-18 481.44,-14.5001 481.44,-21.5001"/>
</g>
</g>
</svg>
