<?xml version="1.0" encoding="UTF-8" standalone="no"?>
<!DOCTYPE svg PUBLIC "-//W3C//DTD SVG 1.1//EN"
 "http://www.w3.org/Graphics/SVG/1.1/DTD/svg11.dtd">
<!-- Generated by graphviz version 2.40.1 (20161225.0304)
 -->
<!-- Title: ChangeSuffix Pages: 1 -->
<svg width="130pt" height="209pt"
 viewBox="0.00 0.00 130.00 209.00" xmlns="http://www.w3.org/2000/svg" xmlns:xlink="http://www.w3.org/1999/xlink">
<g id="graph0" class="graph" transform="scale(1 1) rotate(0) translate(4 205)">
<title>ChangeSuffix</title>
<polygon fill="#ffffff" stroke="transparent" points="-4,4 -4,-205 126,-205 126,4 -4,4"/>
<!-- C1 -->
<g id="node1" class="node">
<title>C1</title>
<ellipse fill="#ffffff" stroke="#000000" cx="51.5" cy="-179.5" rx="21.5" ry="21.5"/>
<text text-anchor="middle" x="51.5" y="-175.8" font-family="Arial" font-size="14.00" fill="#000000">C1</text>
</g>
<!-- C2 -->
<g id="node2" class="node">
<title>C2</title>
<ellipse fill="#ffffff" stroke="#000000" cx="21.5" cy="-100.5" rx="21.5" ry="21.5"/>
<text text-anchor="middle" x="21.5" y="-96.8" font-family="Arial" font-size="14.00" fill="#000000">C2</text>
</g>
<!-- C1&#45;&#45;C2 -->
<g id="edge1" class="edge">
<title>C1&#45;&#45;C2</title>
<path fill="none" stroke="#000000" d="M43.7743,-159.1555C39.2951,-147.3605 33.6742,-132.5588 29.1996,-120.7755"/>
</g>
<!-- C3 -->
<g id="node3" class="node">
<title>C3</title>
<ellipse fill="#eedd82" stroke="#daa520" cx="82.5" cy="-100.5" rx="21.5" ry="21.5"/>
<text text-anchor="middle" x="82.5" y="-96.8" font-family="Arial" font-size="14.00" fill="#000000">C3</text>
</g>
<!-- C1&#45;&#45;C3 -->
<g id="edge2" class="edge">
<title>C1&#45;&#45;C3</title>
<path fill="none" stroke="#000000" d="M59.4833,-159.1555C64.1117,-147.3605 69.92,-132.5588 74.5438,-120.7755"/>
</g>
<!-- C3&#45;&#45;C3 -->
<g id="edge4" class="edge">
<title>C3&#45;&#45;C3</title>
<path fill="none" stroke="transparent" d="M99.5524,-113.836C110.9276,-117.5899 122,-113.1445 122,-100.5 122,-87.8555 110.9276,-83.4101 99.5524,-87.164"/>
<text text-anchor="middle" x="106.0524" y="-75.964" font-family="Arial" font-size="14.00" fill="#000000">M</text>
</g>
<!-- C4 -->
<g id="node4" class="node">
<title>C4</title>
<ellipse fill="#000000" stroke="#00ff00" cx="82.5" cy="-21.5" rx="21.5" ry="21.5"/>
<text text-anchor="middle" x="82.5" y="-17.8" font-family="Arial" font-size="14.00" fill="#000000">C4</text>
</g>
<!-- C3&#45;&#45;C4 -->
<g id="edge3" class="edge">
<title>C3&#45;&#45;C4</title>
<path fill="none" stroke="#000000" d="M82.5,-78.9129C82.5,-67.7659 82.5,-54.2042 82.5,-43.061"/>
</g>
</g>
</svg>
