<?xml version="1.0" encoding="UTF-8" standalone="no"?>
<!DOCTYPE svg PUBLIC "-//W3C//DTD SVG 1.1//EN"
 "http://www.w3.org/Graphics/SVG/1.1/DTD/svg11.dtd">
<!-- Generated by graphviz version 2.40.1 (20161225.0304)
 -->
<!-- Title: CodeDeleted Pages: 1 -->
<svg width="130pt" height="137pt"
 viewBox="0.00 0.00 130.00 136.84" xmlns="http://www.w3.org/2000/svg" xmlns:xlink="http://www.w3.org/1999/xlink">
<g id="graph0" class="graph" transform="scale(1 1) rotate(0) translate(4 132.836)">
<title>CodeDeleted</title>
<polygon fill="#ffffff" stroke="transparent" points="-4,4 -4,-132.836 126,-132.836 126,4 -4,4"/>
<!-- C1 -->
<g id="node1" class="node">
<title>C1</title>
<ellipse fill="#ffffff" stroke="#000000" cx="60.5" cy="-107.336" rx="21.5" ry="21.5"/>
<text text-anchor="middle" x="60.5" y="-103.636" font-family="Arial" font-size="14.00" fill="#000000">C1</text>
</g>
<!-- C2 -->
<g id="node2" class="node">
<title>C2</title>
<ellipse fill="#ffc0cb" stroke="#ff0000" cx="21.5" cy="-28.336" rx="21.5" ry="21.5"/>
<text text-anchor="middle" x="21.5" y="-24.636" font-family="Arial" font-size="14.00" fill="#000000">C2</text>
</g>
<!-- C1&#45;&#45;C2 -->
<g id="edge1" class="edge">
<title>C1&#45;&#45;C2</title>
<path fill="none" stroke="#000000" d="M50.8595,-87.8079C44.8144,-75.5626 37.0536,-59.842 31.0296,-47.6395"/>
</g>
<!-- C3 -->
<g id="node3" class="node">
<title>C3</title>
<ellipse fill="#ffffff" stroke="#000000" cx="100.5" cy="-28.336" rx="21.5" ry="21.5"/>
<text text-anchor="middle" x="100.5" y="-24.636" font-family="Arial" font-size="14.00" fill="#000000">C3</text>
</g>
<!-- C1&#45;&#45;C3 -->
<g id="edge2" class="edge">
<title>C1&#45;&#45;C3</title>
<path fill="none" stroke="#000000" d="M70.3876,-87.8079C76.5878,-75.5626 84.5476,-59.842 90.7261,-47.6395"/>
</g>
<!-- C2&#45;&#45;C2 -->
<g id="edge3" class="edge">
<title>C2&#45;&#45;C2</title>
<path fill="none" stroke="transparent" d="M38.5524,-41.6721C49.9276,-45.4259 61,-40.9806 61,-28.336 61,-15.6915 49.9276,-11.2462 38.5524,-15"/>
<text text-anchor="middle" x="45.0524" y="-3.8" font-family="Arial" font-size="14.00" fill="#000000">M</text>
</g>
</g>
</svg>
