<?xml version="1.0" encoding="UTF-8" standalone="no"?>
<!DOCTYPE svg PUBLIC "-//W3C//DTD SVG 1.1//EN"
 "http://www.w3.org/Graphics/SVG/1.1/DTD/svg11.dtd">
<!-- Generated by graphviz version 2.40.1 (20161225.0304)
 -->
<!-- Title: BasicAlgorithm Pages: 1 -->
<svg width="2176pt" height="2979pt"
 viewBox="0.00 0.00 2175.50 2978.81" xmlns="http://www.w3.org/2000/svg" xmlns:xlink="http://www.w3.org/1999/xlink">
<g id="graph0" class="graph" transform="scale(1 1) rotate(0) translate(4 2974.814)">
<title>BasicAlgorithm</title>
<polygon fill="#ffffff" stroke="transparent" points="-4,4 -4,-2974.814 2171.5,-2974.814 2171.5,4 -4,4"/>
<!-- Start -->
<g id="node1" class="node">
<title>Start</title>
<ellipse fill="#ffffff" stroke="#00ff00" cx="1971.5" cy="-2843" rx="18" ry="18"/>
</g>
<!-- Find business rule violations -->
<g id="node2" class="node">
<title>Find business rule violations</title>
<polygon fill="#ffffff" stroke="#000000" points="1150.5,-2241 950.5,-2241 950.5,-2205 1150.5,-2205 1150.5,-2241"/>
<text text-anchor="middle" x="1050.5" y="-2219.3" font-family="Arial" font-size="14.00" fill="#000000">Find business rule violations</text>
</g>
<!-- Start&#45;&gt;Find business rule violations -->
<g id="edge1" class="edge">
<title>Start&#45;&gt;Find business rule violations</title>
<path fill="none" stroke="#000000" d="M1956.2827,-2832.756C1851.8302,-2762.4406 1240.4266,-2350.855 1085.9445,-2246.8606"/>
<polygon fill="#000000" stroke="#000000" points="1087.5142,-2243.6981 1077.2641,-2241.0171 1083.6051,-2249.5049 1087.5142,-2243.6981"/>
<text text-anchor="middle" x="1646" y="-2529.3" font-family="Arial" font-size="14.00" fill="#000000">Model is a Goods Nomenclature or Indent</text>
</g>
<!-- Save model -->
<g id="node3" class="node">
<title>Save model</title>
<polygon fill="#ffffff" stroke="#000000" points="1978.5,-673 1884.5,-673 1884.5,-637 1978.5,-637 1978.5,-673"/>
<text text-anchor="middle" x="1931.5" y="-651.3" font-family="Arial" font-size="14.00" fill="#000000">Save model</text>
</g>
<!-- Start&#45;&gt;Save model -->
<g id="edge2" class="edge">
<title>Start&#45;&gt;Save model</title>
<path fill="none" stroke="#000000" d="M1971.3507,-2824.7131C1970.3161,-2700.5005 1963.8858,-1967.6488 1951.5,-1371 1945.9458,-1103.4402 1935.596,-779.7378 1932.4386,-683.3671"/>
<polygon fill="#000000" stroke="#000000" points="1935.9329,-683.1337 1932.1063,-673.254 1928.9367,-683.3636 1935.9329,-683.1337"/>
<text text-anchor="middle" x="2058.5" y="-1817.3" font-family="Arial" font-size="14.00" fill="#000000">Model is Goods Nomenclature</text>
<text text-anchor="middle" x="2058.5" y="-1802.3" font-family="Arial" font-size="14.00" fill="#000000">Description,</text>
<text text-anchor="middle" x="2058.5" y="-1787.3" font-family="Arial" font-size="14.00" fill="#000000">Origin or Successor</text>
</g>
<!-- Ignore model -->
<g id="node4" class="node">
<title>Ignore model</title>
<polygon fill="#ffffff" stroke="#000000" points="2101,-2241 2000,-2241 2000,-2205 2101,-2205 2101,-2241"/>
<text text-anchor="middle" x="2050.5" y="-2219.3" font-family="Arial" font-size="14.00" fill="#000000">Ignore model</text>
</g>
<!-- Start&#45;&gt;Ignore model -->
<g id="edge3" class="edge">
<title>Start&#45;&gt;Ignore model</title>
<path fill="none" stroke="#000000" d="M1973.7791,-2825.1132C1984.8711,-2738.0623 2033.2261,-2358.5674 2046.8912,-2251.3221"/>
<polygon fill="#000000" stroke="#000000" points="2050.3813,-2251.6211 2048.1735,-2241.2588 2043.4375,-2250.7362 2050.3813,-2251.6211"/>
<text text-anchor="middle" x="2089" y="-2529.3" font-family="Arial" font-size="14.00" fill="#000000">Model is something else</text>
</g>
<!-- Violation is NIG30/31 -->
<g id="node5" class="node">
<title>Violation is NIG30/31</title>
<polygon fill="#ffffff" stroke="#000000" points="1670.5,-1407 1518.5,-1407 1518.5,-1371 1670.5,-1371 1670.5,-1407"/>
<text text-anchor="middle" x="1594.5" y="-1385.3" font-family="Arial" font-size="14.00" fill="#000000">Violation is NIG30/31</text>
</g>
<!-- Find business rule violations&#45;&gt;Violation is NIG30/31 -->
<g id="edge4" class="edge">
<title>Find business rule violations&#45;&gt;Violation is NIG30/31</title>
<path fill="none" stroke="#000000" d="M1062.3681,-2204.8051C1132.5471,-2097.2145 1493.0073,-1544.5973 1576.9939,-1415.8383"/>
<polygon fill="#000000" stroke="#000000" points="1580.0236,-1417.6 1582.5554,-1407.3121 1574.1606,-1413.7757 1580.0236,-1417.6"/>
</g>
<!-- Violation is NIG22 -->
<g id="node10" class="node">
<title>Violation is NIG22</title>
<polygon fill="#ffffff" stroke="#000000" points="968.5,-1407 836.5,-1407 836.5,-1371 968.5,-1371 968.5,-1407"/>
<text text-anchor="middle" x="902.5" y="-1385.3" font-family="Arial" font-size="14.00" fill="#000000">Violation is NIG22</text>
</g>
<!-- Find business rule violations&#45;&gt;Violation is NIG22 -->
<g id="edge11" class="edge">
<title>Find business rule violations&#45;&gt;Violation is NIG22</title>
<path fill="none" stroke="#000000" d="M1047.8019,-2204.9628C1038.7824,-2144.9731 1008.604,-1946.7153 979.5,-1783.5 954.8994,-1645.5397 921.5115,-1481.2636 908.2612,-1416.8552"/>
<polygon fill="#000000" stroke="#000000" points="911.6867,-1416.1365 906.2405,-1407.0486 904.8308,-1417.5493 911.6867,-1416.1365"/>
</g>
<!-- Footnote association still exists -->
<g id="node14" class="node">
<title>Footnote association still exists</title>
<polygon fill="#ffffff" stroke="#000000" points="1500,-1407 1283,-1407 1283,-1371 1500,-1371 1500,-1407"/>
<text text-anchor="middle" x="1391.5" y="-1385.3" font-family="Arial" font-size="14.00" fill="#000000">Footnote association still exists</text>
</g>
<!-- Find business rule violations&#45;&gt;Footnote association still exists -->
<g id="edge18" class="edge">
<title>Find business rule violations&#45;&gt;Footnote association still exists</title>
<path fill="none" stroke="#000000" d="M1057.9394,-2204.8051C1101.8423,-2097.4297 1326.9774,-1546.806 1380.2086,-1416.616"/>
<polygon fill="#000000" stroke="#000000" points="1383.4677,-1417.8929 1384.0127,-1407.3121 1376.9883,-1415.2437 1383.4677,-1417.8929"/>
</g>
<!-- Violation is NIG34/35 -->
<g id="node15" class="node">
<title>Violation is NIG34/35</title>
<polygon fill="#ffffff" stroke="#000000" points="680.5,-1407 528.5,-1407 528.5,-1371 680.5,-1371 680.5,-1407"/>
<text text-anchor="middle" x="604.5" y="-1385.3" font-family="Arial" font-size="14.00" fill="#000000">Violation is NIG34/35</text>
</g>
<!-- Find business rule violations&#45;&gt;Violation is NIG34/35 -->
<g id="edge20" class="edge">
<title>Find business rule violations&#45;&gt;Violation is NIG34/35</title>
<path fill="none" stroke="#000000" d="M1040.7699,-2204.8051C983.291,-2097.3221 688.2999,-1545.7021 619.0596,-1416.2259"/>
<polygon fill="#000000" stroke="#000000" points="622.095,-1414.4799 614.2928,-1407.3121 615.9222,-1417.7809 622.095,-1414.4799"/>
</g>
<!-- Violation is ME32 -->
<g id="node16" class="node">
<title>Violation is ME32</title>
<polygon fill="#ffffff" stroke="#000000" points="226.5,-1407 98.5,-1407 98.5,-1371 226.5,-1371 226.5,-1407"/>
<text text-anchor="middle" x="162.5" y="-1385.3" font-family="Arial" font-size="14.00" fill="#000000">Violation is ME32</text>
</g>
<!-- Find business rule violations&#45;&gt;Violation is ME32 -->
<g id="edge22" class="edge">
<title>Find business rule violations&#45;&gt;Violation is ME32</title>
<path fill="none" stroke="#000000" d="M1031.127,-2204.8051C916.1119,-2096.7842 323.4572,-1540.1692 189.4526,-1414.3136"/>
<polygon fill="#000000" stroke="#000000" points="191.6832,-1411.6069 181.9978,-1407.3121 186.891,-1416.7094 191.6832,-1411.6069"/>
</g>
<!-- Violation is ME7 -->
<g id="node19" class="node">
<title>Violation is ME7</title>
<polygon fill="#ffffff" stroke="#000000" points="818.5,-1407 698.5,-1407 698.5,-1371 818.5,-1371 818.5,-1407"/>
<text text-anchor="middle" x="758.5" y="-1385.3" font-family="Arial" font-size="14.00" fill="#000000">Violation is ME7</text>
</g>
<!-- Find business rule violations&#45;&gt;Violation is ME7 -->
<g id="edge28" class="edge">
<title>Find business rule violations&#45;&gt;Violation is ME7</title>
<path fill="none" stroke="#000000" d="M1045.0104,-2204.8884C1026.6806,-2144.667 965.523,-1945.7711 908.5,-1783.5 859.7305,-1644.7161 795.2032,-1480.9893 769.6263,-1416.7926"/>
<polygon fill="#000000" stroke="#000000" points="772.8207,-1415.3542 765.8642,-1407.3631 766.3191,-1417.9482 772.8207,-1415.3542"/>
</g>
<!-- Violation is ME1 -->
<g id="node20" class="node">
<title>Violation is ME1</title>
<polygon fill="#ffffff" stroke="#000000" points="364.5,-1407 244.5,-1407 244.5,-1371 364.5,-1371 364.5,-1407"/>
<text text-anchor="middle" x="304.5" y="-1385.3" font-family="Arial" font-size="14.00" fill="#000000">Violation is ME1</text>
</g>
<!-- Find business rule violations&#45;&gt;Violation is ME1 -->
<g id="edge30" class="edge">
<title>Find business rule violations&#45;&gt;Violation is ME1</title>
<path fill="none" stroke="#000000" d="M1034.225,-2204.8051C937.7944,-2096.9993 441.7005,-1542.385 327.82,-1415.0709"/>
<polygon fill="#000000" stroke="#000000" points="330.1555,-1412.4321 320.8799,-1407.3121 324.9382,-1417.0989 330.1555,-1412.4321"/>
</g>
<!-- Violation is ME71 -->
<g id="node21" class="node">
<title>Violation is ME71</title>
<polygon fill="#ffffff" stroke="#000000" points="1114.5,-1407 986.5,-1407 986.5,-1371 1114.5,-1371 1114.5,-1407"/>
<text text-anchor="middle" x="1050.5" y="-1385.3" font-family="Arial" font-size="14.00" fill="#000000">Violation is ME71</text>
</g>
<!-- Find business rule violations&#45;&gt;Violation is ME71 -->
<g id="edge32" class="edge">
<title>Find business rule violations&#45;&gt;Violation is ME71</title>
<path fill="none" stroke="#000000" d="M1050.5,-2204.8051C1050.5,-2097.6449 1050.5,-1549.0111 1050.5,-1417.4037"/>
<polygon fill="#000000" stroke="#000000" points="1054.0001,-1417.3121 1050.5,-1407.3121 1047.0001,-1417.3122 1054.0001,-1417.3121"/>
</g>
<!-- Violation is NIG18 -->
<g id="node22" class="node">
<title>Violation is NIG18</title>
<polygon fill="#ffffff" stroke="#000000" points="1264.5,-1407 1132.5,-1407 1132.5,-1371 1264.5,-1371 1264.5,-1407"/>
<text text-anchor="middle" x="1198.5" y="-1385.3" font-family="Arial" font-size="14.00" fill="#000000">Violation is NIG18</text>
</g>
<!-- Find business rule violations&#45;&gt;Violation is NIG18 -->
<g id="edge34" class="edge">
<title>Find business rule violations&#45;&gt;Violation is NIG18</title>
<path fill="none" stroke="#000000" d="M1053.7288,-2204.8051C1072.7453,-2097.6449 1170.1047,-1549.0111 1193.4595,-1417.4037"/>
<polygon fill="#000000" stroke="#000000" points="1196.9492,-1417.7699 1195.2504,-1407.3121 1190.0568,-1416.5467 1196.9492,-1417.7699"/>
</g>
<!-- Violation is ME88 -->
<g id="node23" class="node">
<title>Violation is ME88</title>
<polygon fill="#ffffff" stroke="#000000" points="510.5,-1407 382.5,-1407 382.5,-1371 510.5,-1371 510.5,-1407"/>
<text text-anchor="middle" x="446.5" y="-1385.3" font-family="Arial" font-size="14.00" fill="#000000">Violation is ME88</text>
</g>
<!-- Find business rule violations&#45;&gt;Violation is ME88 -->
<g id="edge36" class="edge">
<title>Find business rule violations&#45;&gt;Violation is ME88</title>
<path fill="none" stroke="#000000" d="M1037.3229,-2204.8051C959.3256,-2097.1069 558.386,-1543.4916 465.6581,-1415.4533"/>
<polygon fill="#000000" stroke="#000000" points="468.4623,-1413.3583 459.762,-1407.3121 462.7929,-1417.4642 468.4623,-1413.3583"/>
</g>
<!-- No violations on any measure -->
<g id="node24" class="node">
<title>No violations on any measure</title>
<polygon fill="#ffffff" stroke="#000000" points="1943,-1407 1734,-1407 1734,-1371 1943,-1371 1943,-1407"/>
<text text-anchor="middle" x="1838.5" y="-1385.3" font-family="Arial" font-size="14.00" fill="#000000">No violations on any measure</text>
</g>
<!-- Find business rule violations&#45;&gt;No violations on any measure -->
<g id="edge39" class="edge">
<title>Find business rule violations&#45;&gt;No violations on any measure</title>
<path fill="none" stroke="#000000" d="M1110.544,-2204.9376C1242.0314,-2162.218 1556.6521,-2042.1794 1719.5,-1828.5 1818.3749,-1698.7622 1835.1698,-1492.6194 1837.9652,-1417.5408"/>
<polygon fill="#000000" stroke="#000000" points="1841.4668,-1417.5449 1838.2842,-1407.4394 1834.4702,-1417.3239 1841.4668,-1417.5449"/>
</g>
<!-- Update measure end date -->
<g id="node6" class="node">
<title>Update measure end date</title>
<polygon fill="#ffffff" stroke="#000000" points="1634,-673 1449,-673 1449,-637 1634,-637 1634,-673"/>
<text text-anchor="middle" x="1541.5" y="-651.3" font-family="Arial" font-size="14.00" fill="#000000">Update measure end date</text>
</g>
<!-- Violation is NIG30/31&#45;&gt;Update measure end date -->
<g id="edge5" class="edge">
<title>Violation is NIG30/31&#45;&gt;Update measure end date</title>
<path fill="none" stroke="#000000" d="M1590.8586,-1370.9908C1580.6932,-1319.6951 1552.1249,-1168.3094 1542.5,-1041 1532.3993,-907.3976 1537.4657,-747.0403 1540.1694,-683.2091"/>
<polygon fill="#000000" stroke="#000000" points="1543.6701,-683.2677 1540.6116,-673.124 1536.6769,-682.9611 1543.6701,-683.2677"/>
<text text-anchor="middle" x="1617" y="-1022.3" font-family="Arial" font-size="14.00" fill="#000000">Updated to end sooner</text>
</g>
<!-- Update measure start date -->
<g id="node8" class="node">
<title>Update measure start date</title>
<polygon fill="#ffffff" stroke="#000000" points="1430.5,-673 1242.5,-673 1242.5,-637 1430.5,-637 1430.5,-673"/>
<text text-anchor="middle" x="1336.5" y="-651.3" font-family="Arial" font-size="14.00" fill="#000000">Update measure start date</text>
</g>
<!-- Violation is NIG30/31&#45;&gt;Update measure start date -->
<g id="edge7" class="edge">
<title>Violation is NIG30/31&#45;&gt;Update measure start date</title>
<path fill="none" stroke="#000000" d="M1581.5314,-1370.8122C1546.5675,-1320.8355 1449.8104,-1176.1371 1402.5,-1041 1357.4796,-912.4039 1342.4994,-748.5935 1338.1163,-683.511"/>
<polygon fill="#000000" stroke="#000000" points="1341.5901,-682.9888 1337.4582,-673.2329 1334.6044,-683.4361 1341.5901,-682.9888"/>
<text text-anchor="middle" x="1470" y="-1022.3" font-family="Arial" font-size="14.00" fill="#000000">Updated to start later</text>
</g>
<!-- Delete measure -->
<g id="node9" class="node">
<title>Delete measure</title>
<polygon fill="#ffffff" stroke="#000000" points="639,-673 520,-673 520,-637 639,-637 639,-673"/>
<text text-anchor="middle" x="579.5" y="-651.3" font-family="Arial" font-size="14.00" fill="#000000">Delete measure</text>
</g>
<!-- Violation is NIG30/31&#45;&gt;Delete measure -->
<g id="edge9" class="edge">
<title>Violation is NIG30/31&#45;&gt;Delete measure</title>
<path fill="none" stroke="#000000" d="M1574.4471,-1370.6897C1512.2485,-1314.2562 1316.2072,-1139.079 1140.5,-1011 953.0869,-874.3882 714.0225,-732.7748 620.0353,-678.2792"/>
<polygon fill="#000000" stroke="#000000" points="621.5442,-675.1086 611.136,-673.1284 618.0376,-681.167 621.5442,-675.1086"/>
<text text-anchor="middle" x="1241" y="-1022.3" font-family="Arial" font-size="14.00" fill="#000000">No longer overlaps</text>
</g>
<!-- Re&#45;run business rules -->
<g id="node7" class="node">
<title>Re&#45;run business rules</title>
<polygon fill="#ffffff" stroke="#000000" points="1049.5,-146 891.5,-146 891.5,-110 1049.5,-110 1049.5,-146"/>
<text text-anchor="middle" x="970.5" y="-124.3" font-family="Arial" font-size="14.00" fill="#000000">Re&#45;run business rules</text>
</g>
<!-- Update measure end date&#45;&gt;Re&#45;run business rules -->
<g id="edge6" class="edge">
<title>Update measure end date&#45;&gt;Re&#45;run business rules</title>
<path fill="none" stroke="#000000" d="M1521.8449,-636.8595C1436.3073,-557.9132 1096.3571,-244.1588 997.5588,-152.9737"/>
<polygon fill="#000000" stroke="#000000" points="999.7948,-150.2745 990.0724,-146.0642 995.0472,-155.4185 999.7948,-150.2745"/>
</g>
<!-- Re&#45;run business rules&#45;&gt;Find business rule violations -->
<g id="edge38" class="edge">
<title>Re&#45;run business rules&#45;&gt;Find business rule violations</title>
<path fill="none" stroke="#000000" d="M1014.1553,-146.1687C1137.3393,-199.9742 1488.6601,-371.4478 1642.5,-636 1726.9947,-781.3021 1680.5881,-843.2711 1691.5,-1011 1702.9311,-1186.7093 1739.0066,-1241.2791 1679.5,-1407 1547.9739,-1773.2893 1185.6478,-2106.3996 1079.8599,-2198.1313"/>
<polygon fill="#000000" stroke="#000000" points="1077.4087,-2195.6234 1072.1229,-2204.8055 1081.981,-2200.9238 1077.4087,-2195.6234"/>
</g>
<!-- Update measure start date&#45;&gt;Re&#45;run business rules -->
<g id="edge8" class="edge">
<title>Update measure start date&#45;&gt;Re&#45;run business rules</title>
<path fill="none" stroke="#000000" d="M1323.9015,-636.8595C1269.3485,-558.3091 1053.3534,-247.2999 988.8085,-154.3623"/>
<polygon fill="#000000" stroke="#000000" points="991.6246,-152.2812 983.0456,-146.0642 985.8751,-156.2742 991.6246,-152.2812"/>
</g>
<!-- Delete measure&#45;&gt;Re&#45;run business rules -->
<g id="edge10" class="edge">
<title>Delete measure&#45;&gt;Re&#45;run business rules</title>
<path fill="none" stroke="#000000" d="M592.9591,-636.8595C651.2384,-558.3091 881.9872,-247.2999 950.9409,-154.3623"/>
<polygon fill="#000000" stroke="#000000" points="953.9498,-156.1807 957.0975,-146.0642 948.3281,-152.0098 953.9498,-156.1807"/>
</g>
<!-- Update footnote association\nend date -->
<g id="node11" class="node">
<title>Update footnote association\nend date</title>
<polygon fill="#ffffff" stroke="#000000" points="1069,-674 872,-674 872,-636 1069,-636 1069,-674"/>
<text text-anchor="middle" x="970.5" y="-658.8" font-family="Arial" font-size="14.00" fill="#000000">Update footnote association</text>
<text text-anchor="middle" x="970.5" y="-643.8" font-family="Arial" font-size="14.00" fill="#000000">end date</text>
</g>
<!-- Violation is NIG22&#45;&gt;Update footnote association\nend date -->
<g id="edge12" class="edge">
<title>Violation is NIG22&#45;&gt;Update footnote association\nend date</title>
<path fill="none" stroke="#000000" d="M895.6542,-1370.8629C875.9496,-1316.32 821.9691,-1149.043 845.5,-1011 867.1355,-884.0761 929.2376,-742.1876 956.9109,-683.1387"/>
<polygon fill="#000000" stroke="#000000" points="960.0912,-684.6006 961.1997,-674.0639 953.7623,-681.6096 960.0912,-684.6006"/>
<text text-anchor="middle" x="920" y="-1022.3" font-family="Arial" font-size="14.00" fill="#000000">Updated to end sooner</text>
</g>
<!-- Update footnote association\nstart date -->
<g id="node12" class="node">
<title>Update footnote association\nstart date</title>
<polygon fill="#ffffff" stroke="#000000" points="854,-674 657,-674 657,-636 854,-636 854,-674"/>
<text text-anchor="middle" x="755.5" y="-658.8" font-family="Arial" font-size="14.00" fill="#000000">Update footnote association</text>
<text text-anchor="middle" x="755.5" y="-643.8" font-family="Arial" font-size="14.00" fill="#000000">start date</text>
</g>
<!-- Violation is NIG22&#45;&gt;Update footnote association\nstart date -->
<g id="edge14" class="edge">
<title>Violation is NIG22&#45;&gt;Update footnote association\nstart date</title>
<path fill="none" stroke="#000000" d="M887.5598,-1370.9209C848.0455,-1321.7808 741.3022,-1180.1022 704.5,-1041 669.9546,-910.428 720.4042,-748.5319 744.2149,-683.7532"/>
<polygon fill="#000000" stroke="#000000" points="747.5593,-684.8024 747.7905,-674.2101 741.0043,-682.3463 747.5593,-684.8024"/>
<text text-anchor="middle" x="772" y="-1022.3" font-family="Arial" font-size="14.00" fill="#000000">Updated to start later</text>
</g>
<!-- Delete association -->
<g id="node13" class="node">
<title>Delete association</title>
<polygon fill="#ffffff" stroke="#000000" points="1223.5,-673 1087.5,-673 1087.5,-637 1223.5,-637 1223.5,-673"/>
<text text-anchor="middle" x="1155.5" y="-651.3" font-family="Arial" font-size="14.00" fill="#000000">Delete association</text>
</g>
<!-- Violation is NIG22&#45;&gt;Delete association -->
<g id="edge16" class="edge">
<title>Violation is NIG22&#45;&gt;Delete association</title>
<path fill="none" stroke="#000000" d="M907.216,-1370.7113C921.5293,-1315.745 966.3836,-1147.4074 1013.5,-1011 1056.421,-886.7389 1117.6696,-742.2392 1143.3925,-682.7509"/>
<polygon fill="#000000" stroke="#000000" points="1146.7231,-683.8675 1147.4897,-673.3004 1140.3007,-681.0831 1146.7231,-683.8675"/>
<text text-anchor="middle" x="1075" y="-1022.3" font-family="Arial" font-size="14.00" fill="#000000">No longer overlaps</text>
</g>
<!-- Update footnote association\nend date&#45;&gt;Re&#45;run business rules -->
<g id="edge13" class="edge">
<title>Update footnote association\nend date&#45;&gt;Re&#45;run business rules</title>
<path fill="none" stroke="#000000" d="M970.5,-635.9325C970.5,-556.4995 970.5,-251.6058 970.5,-156.5031"/>
<polygon fill="#000000" stroke="#000000" points="974.0001,-156.2202 970.5,-146.2203 967.0001,-156.2203 974.0001,-156.2202"/>
</g>
<!-- Update footnote association\nstart date&#45;&gt;Re&#45;run business rules -->
<g id="edge15" class="edge">
<title>Update footnote association\nstart date&#45;&gt;Re&#45;run business rules</title>
<path fill="none" stroke="#000000" d="M763.279,-635.9325C795.7839,-556.2576 920.8311,-249.7465 959.2237,-155.64"/>
<polygon fill="#000000" stroke="#000000" points="962.5299,-156.8015 963.0667,-146.2203 956.0485,-154.1573 962.5299,-156.8015"/>
</g>
<!-- Delete association&#45;&gt;Re&#45;run business rules -->
<g id="edge17" class="edge">
<title>Delete association&#45;&gt;Re&#45;run business rules</title>
<path fill="none" stroke="#000000" d="M1149.1319,-636.8595C1121.6963,-558.705 1013.478,-250.4292 980.2535,-155.7842"/>
<polygon fill="#000000" stroke="#000000" points="983.4561,-154.3404 976.8413,-146.0642 976.8512,-156.6591 983.4561,-154.3404"/>
</g>
<!-- Footnote association still exists&#45;&gt;Delete association -->
<g id="edge19" class="edge">
<title>Footnote association still exists&#45;&gt;Delete association</title>
<path fill="none" stroke="#000000" d="M1380.072,-1370.9735C1348.8398,-1320.8276 1261.5207,-1174.5818 1218.5,-1041 1176.7856,-911.4744 1161.7738,-748.1899 1157.2211,-683.3795"/>
<polygon fill="#000000" stroke="#000000" points="1160.696,-682.8883 1156.5328,-673.1458 1153.7118,-683.3581 1160.696,-682.8883"/>
</g>
<!-- Violation is NIG34/35&#45;&gt;Delete measure -->
<g id="edge21" class="edge">
<title>Violation is NIG34/35&#45;&gt;Delete measure</title>
<path fill="none" stroke="#000000" d="M603.882,-1370.8561C600.5352,-1272.5941 584.5805,-804.1636 580.4685,-683.4352"/>
<polygon fill="#000000" stroke="#000000" points="583.9572,-683.0418 580.1188,-673.1668 576.9613,-683.2801 583.9572,-683.0418"/>
</g>
<!-- Violation is ME32&#45;&gt;Delete measure -->
<g id="edge27" class="edge">
<title>Violation is ME32&#45;&gt;Delete measure</title>
<path fill="none" stroke="#000000" d="M173.9074,-1370.6925C205.8851,-1319.2277 298.8012,-1168.6968 371.5,-1041 447.2664,-907.915 532.4,-745.6278 565.3906,-682.2185"/>
<polygon fill="#000000" stroke="#000000" points="568.5446,-683.7395 570.0508,-673.2522 562.3334,-680.5112 568.5446,-683.7395"/>
<text text-anchor="middle" x="456.5" y="-1029.8" font-family="Arial" font-size="14.00" fill="#000000">Measure overlaps with</text>
<text text-anchor="middle" x="456.5" y="-1014.8" font-family="Arial" font-size="14.00" fill="#000000">full range of indent</text>
</g>
<!-- Update measure end date\nto be indent validity start -->
<g id="node17" class="node">
<title>Update measure end date\nto be indent validity start</title>
<polygon fill="#ffffff" stroke="#000000" points="185,-674 0,-674 0,-636 185,-636 185,-674"/>
<text text-anchor="middle" x="92.5" y="-658.8" font-family="Arial" font-size="14.00" fill="#000000">Update measure end date</text>
<text text-anchor="middle" x="92.5" y="-643.8" font-family="Arial" font-size="14.00" fill="#000000">to be indent validity start</text>
</g>
<!-- Violation is ME32&#45;&gt;Update measure end date\nto be indent validity start -->
<g id="edge23" class="edge">
<title>Violation is ME32&#45;&gt;Update measure end date\nto be indent validity start</title>
<path fill="none" stroke="#000000" d="M154.9096,-1370.9558C134.0113,-1320.1738 75.8965,-1171.2465 56.5,-1041 36.779,-908.574 69.4438,-748.8806 84.989,-684.2567"/>
<polygon fill="#000000" stroke="#000000" points="88.4313,-684.9148 87.4141,-674.3689 81.6328,-683.2474 88.4313,-684.9148"/>
<text text-anchor="middle" x="129.5" y="-1029.8" font-family="Arial" font-size="14.00" fill="#000000">Measure overlaps with</text>
<text text-anchor="middle" x="129.5" y="-1014.8" font-family="Arial" font-size="14.00" fill="#000000">start of indent</text>
</g>
<!-- Update measure start date\nto be indent validity end -->
<g id="node18" class="node">
<title>Update measure start date\nto be indent validity end</title>
<polygon fill="#ffffff" stroke="#000000" points="464.5,-674 276.5,-674 276.5,-636 464.5,-636 464.5,-674"/>
<text text-anchor="middle" x="370.5" y="-658.8" font-family="Arial" font-size="14.00" fill="#000000">Update measure start date</text>
<text text-anchor="middle" x="370.5" y="-643.8" font-family="Arial" font-size="14.00" fill="#000000">to be indent validity end</text>
</g>
<!-- Violation is ME32&#45;&gt;Update measure start date\nto be indent validity end -->
<g id="edge25" class="edge">
<title>Violation is ME32&#45;&gt;Update measure start date\nto be indent validity end</title>
<path fill="none" stroke="#000000" d="M164.0735,-1370.9783C169.1693,-1316.0759 187.1592,-1146.3872 225.5,-1011 261.242,-884.7895 327.579,-742.5189 356.4584,-683.254"/>
<polygon fill="#000000" stroke="#000000" points="359.6646,-684.665 360.9216,-674.145 353.3786,-681.585 359.6646,-684.665"/>
<text text-anchor="middle" x="298.5" y="-1029.8" font-family="Arial" font-size="14.00" fill="#000000">Measure overlaps with</text>
<text text-anchor="middle" x="298.5" y="-1014.8" font-family="Arial" font-size="14.00" fill="#000000">end of indent</text>
</g>
<!-- Update measure end date\nto be indent validity start&#45;&gt;Re&#45;run business rules -->
<g id="edge24" class="edge">
<title>Update measure end date\nto be indent validity start&#45;&gt;Re&#45;run business rules</title>
<path fill="none" stroke="#000000" d="M124.2672,-635.9325C259.0235,-555.048 783.2592,-240.3872 931.3446,-151.5021"/>
<polygon fill="#000000" stroke="#000000" points="933.3716,-154.3676 940.1444,-146.2203 929.7691,-148.3658 933.3716,-154.3676"/>
</g>
<!-- Update measure start date\nto be indent validity end&#45;&gt;Re&#45;run business rules -->
<g id="edge26" class="edge">
<title>Update measure start date\nto be indent validity end&#45;&gt;Re&#45;run business rules</title>
<path fill="none" stroke="#000000" d="M392.2088,-635.9325C483.8383,-555.4512 838.9798,-243.5185 942.2098,-152.8482"/>
<polygon fill="#000000" stroke="#000000" points="944.5522,-155.4492 949.7559,-146.2203 939.9328,-150.1898 944.5522,-155.4492"/>
</g>
<!-- Violation is ME7&#45;&gt;Delete measure -->
<g id="edge29" class="edge">
<title>Violation is ME7&#45;&gt;Delete measure</title>
<path fill="none" stroke="#000000" d="M754.0753,-1370.8561C730.0881,-1272.4952 615.6462,-803.2198 586.3458,-683.0715"/>
<polygon fill="#000000" stroke="#000000" points="589.7,-682.0528 583.9303,-673.1668 582.8993,-683.7113 589.7,-682.0528"/>
</g>
<!-- Violation is ME1&#45;&gt;Delete measure -->
<g id="edge31" class="edge">
<title>Violation is ME1&#45;&gt;Delete measure</title>
<path fill="none" stroke="#000000" d="M321.7876,-1370.8913C367.0455,-1322.2277 489.0503,-1182.6917 540.5,-1041 586.5708,-914.1217 584.4103,-749.3397 581.2992,-683.7541"/>
<polygon fill="#000000" stroke="#000000" points="584.7751,-683.198 580.7589,-673.3939 577.7846,-683.5627 584.7751,-683.198"/>
</g>
<!-- Violation is ME71&#45;&gt;Delete association -->
<g id="edge33" class="edge">
<title>Violation is ME71&#45;&gt;Delete association</title>
<path fill="none" stroke="#000000" d="M1056.6911,-1370.7991C1073.7775,-1319.611 1121.5763,-1169.7298 1140.5,-1041 1160.0013,-908.3413 1158.1911,-747.4537 1156.4629,-683.3449"/>
<polygon fill="#000000" stroke="#000000" points="1159.9576,-683.1084 1156.1679,-673.2145 1152.9605,-683.3122 1159.9576,-683.1084"/>
</g>
<!-- Violation is NIG18&#45;&gt;Delete association -->
<g id="edge35" class="edge">
<title>Violation is NIG18&#45;&gt;Delete association</title>
<path fill="none" stroke="#000000" d="M1197.4371,-1370.8561C1191.6806,-1272.5941 1164.2385,-804.1636 1157.1658,-683.4352"/>
<polygon fill="#000000" stroke="#000000" points="1160.6432,-682.9449 1156.5643,-673.1668 1153.6552,-683.3544 1160.6432,-682.9449"/>
</g>
<!-- Violation is ME88&#45;&gt;Delete measure -->
<g id="edge37" class="edge">
<title>Violation is ME88&#45;&gt;Delete measure</title>
<path fill="none" stroke="#000000" d="M454.9346,-1370.6586C477.8844,-1319.708 541.3479,-1171.5963 565.5,-1041 589.8814,-909.1642 584.7188,-747.8142 581.288,-683.4633"/>
<polygon fill="#000000" stroke="#000000" points="584.7721,-683.0811 580.716,-673.2934 577.7831,-683.4742 584.7721,-683.0811"/>
</g>
<!-- No violations on any measure&#45;&gt;Save model -->
<g id="edge40" class="edge">
<title>No violations on any measure&#45;&gt;Save model</title>
<path fill="none" stroke="#000000" d="M1840.7989,-1370.8561C1853.249,-1272.5941 1912.6005,-804.1636 1927.8972,-683.4352"/>
<polygon fill="#000000" stroke="#000000" points="1931.4134,-683.5274 1929.1982,-673.1668 1924.4689,-682.6475 1931.4134,-683.5274"/>
</g>
</g>
</svg>
