<?xml version="1.0" encoding="UTF-8" standalone="no"?>
<!DOCTYPE svg PUBLIC "-//W3C//DTD SVG 1.1//EN"
 "http://www.w3.org/Graphics/SVG/1.1/DTD/svg11.dtd">
<!-- Generated by graphviz version 2.40.1 (20161225.0304)
 -->
<!-- Title: ParentCodeDeleted Pages: 1 -->
<svg width="130pt" height="216pt"
 viewBox="0.00 0.00 130.00 215.84" xmlns="http://www.w3.org/2000/svg" xmlns:xlink="http://www.w3.org/1999/xlink">
<g id="graph0" class="graph" transform="scale(1 1) rotate(0) translate(4 211.836)">
<title>ParentCodeDeleted</title>
<polygon fill="#ffffff" stroke="transparent" points="-4,4 -4,-211.836 126,-211.836 126,4 -4,4"/>
<!-- C1 -->
<g id="node1" class="node">
<title>C1</title>
<ellipse fill="#ffffff" stroke="#000000" cx="60.5" cy="-186.336" rx="21.5" ry="21.5"/>
<text text-anchor="middle" x="60.5" y="-182.636" font-family="Arial" font-size="14.00" fill="#000000">C1</text>
</g>
<!-- C2 -->
<g id="node2" class="node">
<title>C2</title>
<ellipse fill="#ffffff" stroke="#000000" cx="21.5" cy="-107.336" rx="21.5" ry="21.5"/>
<text text-anchor="middle" x="21.5" y="-103.636" font-family="Arial" font-size="14.00" fill="#000000">C2</text>
</g>
<!-- C1&#45;&#45;C2 -->
<g id="edge1" class="edge">
<title>C1&#45;&#45;C2</title>
<path fill="none" stroke="#000000" d="M50.8595,-166.8079C44.8144,-154.5626 37.0536,-138.842 31.0296,-126.6395"/>
</g>
<!-- C3 -->
<g id="node3" class="node">
<title>C3</title>
<ellipse fill="#ffc0cb" stroke="#ff0000" cx="100.5" cy="-107.336" rx="21.5" ry="21.5"/>
<text text-anchor="middle" x="100.5" y="-103.636" font-family="Arial" font-size="14.00" fill="#000000">C3</text>
</g>
<!-- C1&#45;&#45;C3 -->
<g id="edge2" class="edge">
<title>C1&#45;&#45;C3</title>
<path fill="none" stroke="#000000" d="M70.3876,-166.8079C76.5878,-154.5626 84.5476,-138.842 90.7261,-126.6395"/>
</g>
<!-- C2&#45;&#45;C2 -->
<g id="edge5" class="edge">
<title>C2&#45;&#45;C2</title>
<path fill="none" stroke="transparent" d="M38.5524,-120.6721C49.9276,-124.4259 61,-119.9806 61,-107.336 61,-94.6915 49.9276,-90.2462 38.5524,-94"/>
<text text-anchor="middle" x="45.0524" y="-82.8" font-family="Arial" font-size="14.00" fill="#000000">M</text>
</g>
<!-- C4 -->
<g id="node4" class="node">
<title>C4</title>
<ellipse fill="#ffffff" stroke="#000000" cx="60.5" cy="-28.336" rx="21.5" ry="21.5"/>
<text text-anchor="middle" x="60.5" y="-24.636" font-family="Arial" font-size="14.00" fill="#000000">C4</text>
</g>
<!-- C2&#45;&#45;C4 -->
<g id="edge4" class="edge">
<title>C2&#45;&#45;C4</title>
<path fill="none" stroke="#000000" stroke-dasharray="1,5" d="M31.1405,-87.8079C37.1856,-75.5626 44.9464,-59.842 50.9704,-47.6395"/>
</g>
<!-- C3&#45;&#45;C4 -->
<g id="edge3" class="edge">
<title>C3&#45;&#45;C4</title>
<path fill="none" stroke="#000000" d="M90.6124,-87.8079C84.4122,-75.5626 76.4524,-59.842 70.2739,-47.6395"/>
</g>
<!-- C4&#45;&#45;C4 -->
<g id="edge6" class="edge">
<title>C4&#45;&#45;C4</title>
<path fill="none" stroke="transparent" d="M77.5524,-41.6721C88.9276,-45.4259 100,-40.9806 100,-28.336 100,-15.6915 88.9276,-11.2462 77.5524,-15"/>
<text text-anchor="middle" x="84.0524" y="-3.8" font-family="Arial" font-size="14.00" fill="#000000">M</text>
</g>
</g>
</svg>
