<?xml version="1.0" encoding="UTF-8" standalone="no"?>
<!DOCTYPE svg PUBLIC "-//W3C//DTD SVG 1.1//EN"
 "http://www.w3.org/Graphics/SVG/1.1/DTD/svg11.dtd">
<!-- Generated by graphviz version 2.43.0 (0)
 -->
<!-- Title: CodeDeleted Pages: 1 -->
<svg width="130pt" height="137pt"
 viewBox="0.00 0.00 130.00 136.84" xmlns="http://www.w3.org/2000/svg" xmlns:xlink="http://www.w3.org/1999/xlink">
<g id="graph0" class="graph" transform="scale(1 1) rotate(0) translate(4 132.84)">
<title>CodeDeleted</title>
<polygon fill="white" stroke="transparent" points="-4,4 -4,-132.84 126,-132.84 126,4 -4,4"/>
<!-- C1 -->
<g id="node1" class="node">
<title>C1</title>
<ellipse fill="white" stroke="black" cx="60.5" cy="-107.34" rx="21.5" ry="21.5"/>
<text text-anchor="middle" x="60.5" y="-103.64" font-family="Arial" font-size="14.00">C1</text>
</g>
<!-- C2 -->
<g id="node2" class="node">
<title>C2</title>
<ellipse fill="pink" stroke="red" cx="21.5" cy="-28.34" rx="21.5" ry="21.5"/>
<text text-anchor="middle" x="21.5" y="-24.64" font-family="Arial" font-size="14.00">C2</text>
</g>
<!-- C1&#45;&#45;C2 -->
<g id="edge1" class="edge">
<title>C1&#45;&#45;C2</title>
<path fill="none" stroke="black" d="M51.06,-87.7C44.93,-75.59 36.97,-59.88 30.85,-47.8"/>
</g>
<!-- C3 -->
<g id="node3" class="node">
<title>C3</title>
<ellipse fill="white" stroke="black" cx="100.5" cy="-28.34" rx="21.5" ry="21.5"/>
<text text-anchor="middle" x="100.5" y="-24.64" font-family="Arial" font-size="14.00">C3</text>
</g>
<!-- C1&#45;&#45;C3 -->
<g id="edge2" class="edge">
<title>C1&#45;&#45;C3</title>
<path fill="none" stroke="black" d="M70.18,-87.7C76.47,-75.59 84.64,-59.88 90.91,-47.8"/>
</g>
<!-- C2&#45;&#45;C2 -->
<g id="edge3" class="edge">
<title>C2&#45;&#45;C2</title>
<path fill="none" stroke="transparent" d="M38.55,-41.67C49.93,-45.43 61,-40.98 61,-28.34 61,-15.69 49.93,-11.25 38.55,-15"/>
<text text-anchor="middle" x="45.05" y="-3.8" font-family="Arial" font-size="14.00">M</text>
</g>
</g>
</svg>
