<?xml version="1.0" encoding="UTF-8" standalone="no"?>
<!DOCTYPE svg PUBLIC "-//W3C//DTD SVG 1.1//EN"
 "http://www.w3.org/Graphics/SVG/1.1/DTD/svg11.dtd">
<!-- Generated by graphviz version 2.40.1 (20161225.0304)
 -->
<!-- Title: IndentChangeWithStolenChild Pages: 1 -->
<svg width="148pt" height="216pt"
 viewBox="0.00 0.00 148.00 215.84" xmlns="http://www.w3.org/2000/svg" xmlns:xlink="http://www.w3.org/1999/xlink">
<g id="graph0" class="graph" transform="scale(1 1) rotate(0) translate(4 211.836)">
<title>IndentChangeWithStolenChild</title>
<polygon fill="#ffffff" stroke="transparent" points="-4,4 -4,-211.836 144,-211.836 144,4 -4,4"/>
<!-- C1 -->
<g id="node1" class="node">
<title>C1</title>
<ellipse fill="#ffffff" stroke="#000000" cx="69.5" cy="-186.336" rx="21.5" ry="21.5"/>
<text text-anchor="middle" x="69.5" y="-182.636" font-family="Arial" font-size="14.00" fill="#000000">C1</text>
</g>
<!-- C2 -->
<g id="node2" class="node">
<title>C2</title>
<ellipse fill="#ffffff" stroke="#000000" cx="39.5" cy="-107.336" rx="21.5" ry="21.5"/>
<text text-anchor="middle" x="39.5" y="-103.636" font-family="Arial" font-size="14.00" fill="#000000">C2</text>
</g>
<!-- C1&#45;&#45;C2 -->
<g id="edge1" class="edge">
<title>C1&#45;&#45;C2</title>
<path fill="none" stroke="#000000" d="M61.7743,-165.9916C57.2951,-154.1966 51.6742,-139.3948 47.1996,-127.6115"/>
</g>
<!-- C3 v2 -->
<g id="node5" class="node">
<title>C3 v2</title>
<ellipse fill="#eedd82" stroke="#daa520" cx="100.5" cy="-107.336" rx="21.5" ry="21.5"/>
<text text-anchor="middle" x="100.5" y="-103.636" font-family="Arial" font-size="14.00" fill="#000000">C3 v2</text>
</g>
<!-- C1&#45;&#45;C3 v2 -->
<g id="edge4" class="edge">
<title>C1&#45;&#45;C3 v2</title>
<path fill="none" stroke="#daa520" stroke-dasharray="1,5" d="M77.4833,-165.9916C82.1117,-154.1966 87.92,-139.3948 92.5438,-127.6115"/>
</g>
<!-- C3 v1 -->
<g id="node3" class="node">
<title>C3 v1</title>
<ellipse fill="#eedd82" stroke="#daa520" cx="21.5" cy="-28.336" rx="21.5" ry="21.5"/>
<text text-anchor="middle" x="21.5" y="-24.636" font-family="Arial" font-size="14.00" fill="#000000">C3 v1</text>
</g>
<!-- C2&#45;&#45;C3 v1 -->
<g id="edge2" class="edge">
<title>C2&#45;&#45;C3 v1</title>
<path fill="none" stroke="#000000" d="M34.6763,-86.1655C32.0937,-74.8307 28.9216,-60.9086 26.337,-49.565"/>
</g>
<!-- C4 -->
<g id="node4" class="node">
<title>C4</title>
<ellipse fill="#ffffff" stroke="#000000" cx="100.5" cy="-28.336" rx="21.5" ry="21.5"/>
<text text-anchor="middle" x="100.5" y="-24.636" font-family="Arial" font-size="14.00" fill="#000000">C4</text>
</g>
<!-- C2&#45;&#45;C4 -->
<g id="edge3" class="edge">
<title>C2&#45;&#45;C4</title>
<path fill="none" stroke="#000000" d="M52.7361,-90.1942C62.9678,-76.9433 77.0645,-58.6869 87.2897,-45.4444"/>
</g>
<!-- C3 v1&#45;&#45;C3 v1 -->
<g id="edge6" class="edge">
<title>C3 v1&#45;&#45;C3 v1</title>
<path fill="none" stroke="transparent" d="M38.5524,-41.6721C49.9276,-45.4259 61,-40.9806 61,-28.336 61,-15.6915 49.9276,-11.2462 38.5524,-15"/>
<text text-anchor="middle" x="45.0524" y="-3.8" font-family="Arial" font-size="14.00" fill="#000000">M</text>
</g>
<!-- C4&#45;&#45;C4 -->
<g id="edge8" class="edge">
<title>C4&#45;&#45;C4</title>
<path fill="none" stroke="transparent" d="M117.5524,-41.6721C128.9276,-45.4259 140,-40.9806 140,-28.336 140,-15.6915 128.9276,-11.2462 117.5524,-15"/>
<text text-anchor="middle" x="124.0524" y="-3.8" font-family="Arial" font-size="14.00" fill="#000000">M</text>
</g>
<!-- C3 v2&#45;&#45;C4 -->
<g id="edge5" class="edge">
<title>C3 v2&#45;&#45;C4</title>
<path fill="none" stroke="#daa520" stroke-dasharray="1,5" d="M100.5,-85.7489C100.5,-74.6019 100.5,-61.0403 100.5,-49.897"/>
</g>
<!-- C3 v2&#45;&#45;C3 v2 -->
<g id="edge7" class="edge">
<title>C3 v2&#45;&#45;C3 v2</title>
<path fill="none" stroke="transparent" d="M117.5524,-120.6721C128.9276,-124.4259 140,-119.9806 140,-107.336 140,-94.6915 128.9276,-90.2462 117.5524,-94"/>
<text text-anchor="middle" x="124.0524" y="-82.8" font-family="Arial" font-size="14.00" fill="#000000">M</text>
</g>
</g>
</svg>
