<?xml version="1.0" encoding="UTF-8" standalone="no"?>
<!DOCTYPE svg PUBLIC "-//W3C//DTD SVG 1.1//EN"
 "http://www.w3.org/Graphics/SVG/1.1/DTD/svg11.dtd">
<!-- Generated by graphviz version 2.43.0 (0)
 -->
<!-- Title: ChangeSuffix Pages: 1 -->
<svg width="130pt" height="209pt"
 viewBox="0.00 0.00 130.00 209.00" xmlns="http://www.w3.org/2000/svg" xmlns:xlink="http://www.w3.org/1999/xlink">
<g id="graph0" class="graph" transform="scale(1 1) rotate(0) translate(4 205)">
<title>ChangeSuffix</title>
<polygon fill="white" stroke="transparent" points="-4,4 -4,-205 126,-205 126,4 -4,4"/>
<!-- C1 -->
<g id="node1" class="node">
<title>C1</title>
<ellipse fill="white" stroke="black" cx="51.5" cy="-179.5" rx="21.5" ry="21.5"/>
<text text-anchor="middle" x="51.5" y="-175.8" font-family="Arial" font-size="14.00">C1</text>
</g>
<!-- C2 -->
<g id="node2" class="node">
<title>C2</title>
<ellipse fill="white" stroke="black" cx="21.5" cy="-100.5" rx="21.5" ry="21.5"/>
<text text-anchor="middle" x="21.5" y="-96.8" font-family="Arial" font-size="14.00">C2</text>
</g>
<!-- C1&#45;&#45;C2 -->
<g id="edge1" class="edge">
<title>C1&#45;&#45;C2</title>
<path fill="none" stroke="black" d="M43.93,-159.07C39.38,-147.4 33.62,-132.6 29.07,-120.92"/>
</g>
<!-- C3 -->
<g id="node3" class="node">
<title>C3</title>
<ellipse fill="#eedd82" stroke="goldenrod" cx="82.5" cy="-100.5" rx="21.5" ry="21.5"/>
<text text-anchor="middle" x="82.5" y="-96.8" font-family="Arial" font-size="14.00">C3</text>
</g>
<!-- C1&#45;&#45;C3 -->
<g id="edge2" class="edge">
<title>C1&#45;&#45;C3</title>
<path fill="none" stroke="black" d="M59.32,-159.07C64.06,-147.31 70.07,-132.37 74.79,-120.66"/>
</g>
<!-- C3&#45;&#45;C3 -->
<g id="edge4" class="edge">
<title>C3&#45;&#45;C3</title>
<path fill="none" stroke="transparent" d="M99.55,-113.84C110.93,-117.59 122,-113.14 122,-100.5 122,-87.86 110.93,-83.41 99.55,-87.16"/>
<text text-anchor="middle" x="106.05" y="-75.96" font-family="Arial" font-size="14.00">M</text>
</g>
<!-- C4 -->
<g id="node4" class="node">
<title>C4</title>
<ellipse fill="lightgreen" stroke="green" cx="82.5" cy="-21.5" rx="21.5" ry="21.5"/>
<text text-anchor="middle" x="82.5" y="-17.8" font-family="Arial" font-size="14.00">C4</text>
</g>
<!-- C3&#45;&#45;C4 -->
<g id="edge3" class="edge">
<title>C3&#45;&#45;C4</title>
<path fill="none" stroke="black" d="M82.5,-78.87C82.5,-67.82 82.5,-54.25 82.5,-43.19"/>
</g>
</g>
</svg>
