<svg width="18" height="11" viewBox="0 0 18 11" fill="none" xmlns="http://www.w3.org/2000/svg">
<path d="M17.4878 8.48358C17.6821 8.73482 17.7734 9.05058 17.7433 9.36673C17.7132 9.68289 17.5639 9.97572 17.3257 10.1858C17.0875 10.3958 16.7782 10.5073 16.4608 10.4976C16.1434 10.4879 15.8415 10.3578 15.6166 10.1336L9.00032 3.51733L2.38407 10.1336L2.26657 10.2373C2.01533 10.4316 1.69957 10.5229 1.38341 10.4928C1.06726 10.4627 0.774424 10.3134 0.564382 10.0752C0.35434 9.83697 0.242843 9.52774 0.252536 9.21031C0.262229 8.89287 0.392387 8.59102 0.616571 8.36608L8.11657 0.866076L8.23407 0.762327C8.47458 0.575763 8.77489 0.483364 9.07867 0.502465C9.38245 0.521567 9.66883 0.650856 9.88407 0.866076L17.3841 8.36608L17.4878 8.48358Z" fill="#1D70B8"/>
</svg>
