<svg width="18" height="11" viewBox="0 0 18 11" fill="none" xmlns="http://www.w3.org/2000/svg">
<path d="M0.512112 2.51635C0.317847 2.26511 0.226496 1.94935 0.256613 1.63319C0.28673 1.31704 0.436056 1.0242 0.674263 0.81416C0.91247 0.604118 1.2217 0.492622 1.53913 0.502316C1.85657 0.512009 2.15841 0.642165 2.38336 0.86635L8.99961 7.4826L15.6159 0.86635L15.7334 0.7626C15.9846 0.568335 16.3004 0.476984 16.6165 0.507101C16.9327 0.537218 17.2255 0.686546 17.4356 0.924752C17.6456 1.16296 17.7571 1.47218 17.7474 1.78962C17.7377 2.10706 17.6075 2.4089 17.3834 2.63385L9.88336 10.1339L9.76586 10.2376C9.52536 10.4242 9.22504 10.5166 8.92126 10.4975C8.61748 10.4784 8.3311 10.3491 8.11586 10.1339L0.615862 2.63385L0.512112 2.51635Z" fill="#1D70B8"/>
</svg>
