<svg width="25" height="25" viewBox="0 0 25 25" fill="none" xmlns="http://www.w3.org/2000/svg">
<path d="M12.4997 22.9168C11.0587 22.9168 9.70454 22.6432 8.43718 22.096C7.16981 21.5495 6.06738 20.8075 5.12988 19.87C4.19238 18.9325 3.45037 17.83 2.90384 16.5627C2.35662 15.2953 2.08301 13.9411 2.08301 12.5002C2.08301 11.0418 2.35211 9.68315 2.8903 8.42412C3.42849 7.16579 4.16634 6.05919 5.10384 5.10433L12.4997 12.5002V2.0835C13.9406 2.0835 15.2948 2.35676 16.5622 2.90329C17.8295 3.45051 18.932 4.19287 19.8695 5.13037C20.807 6.06787 21.549 7.1703 22.0955 8.43766C22.6427 9.70502 22.9163 11.0592 22.9163 12.5002C22.9163 13.9411 22.6427 15.2953 22.0955 16.5627C21.549 17.83 20.807 18.9325 19.8695 19.87C18.932 20.8075 17.8295 21.5495 16.5622 22.096C15.2948 22.6432 13.9406 22.9168 12.4997 22.9168Z" fill="#505A5F"/>
</svg>
