<svg width="18" height="18" viewBox="0 0 18 18" fill="none" xmlns="http://www.w3.org/2000/svg">
<path d="M13.2375 4.7625C12.6824 4.20364 12.0222 3.76017 11.2949 3.45767C10.5676 3.15518 9.78768 2.99963 9 3C7.4087 3 5.88258 3.63214 4.75736 4.75736C3.63214 5.88258 3 7.4087 3 9C3 10.5913 3.63214 12.1174 4.75736 13.2426C5.88258 14.3679 7.4087 15 9 15C11.7975 15 14.13 13.0875 14.7975 10.5H13.2375C12.9285 11.3771 12.355 12.1368 11.596 12.6741C10.837 13.2115 9.92996 13.5 9 13.5C7.80653 13.5 6.66193 13.0259 5.81802 12.182C4.97411 11.3381 4.5 10.1935 4.5 9C4.5 7.80653 4.97411 6.66193 5.81802 5.81802C6.66193 4.97411 7.80653 4.5 9 4.5C10.245 4.5 11.355 5.0175 12.165 5.835L9.75 8.25H15V3L13.2375 4.7625Z" fill="white"/>
</svg>
