<svg width="92" height="18" viewBox="0 0 92 18" fill="none" xmlns="http://www.w3.org/2000/svg">
<path d="M0 18V0H26.1746L35.0699 9L26.1746 18H0Z" fill="#098B4E"/>
<path d="M28.2197 18L37.115 9L28.2197 0H54.3944L63.0852 9L54.3944 18H28.2197Z" fill="#098B4E"/>
<path d="M56.2344 18L65.1297 9L56.2344 0H82.409L91.0998 9L82.409 18H56.2344Z" fill="#D9D9D9"/>
<path d="M14.8045 12.9333L11.1313 9.37184L12.0496 8.48149L14.8045 11.1525L20.717 5.41992L21.6353 6.31028L14.8045 12.9333Z" fill="white"/>
<path d="M46.0911 12.9333L42.418 9.37184L43.3363 8.48149L46.0911 11.1525L52.0036 5.41992L52.9219 6.31028L46.0911 12.9333Z" fill="white"/>
</svg>
