<svg width="18" height="18" viewBox="0 0 18 18" fill="none" xmlns="http://www.w3.org/2000/svg">
    <g clip-path="url(#clip0_2419_35253)">
    <path d="M14.7617 3.76926C14.7613 3.72088 14.7476 3.67355 14.7222 3.6324C14.6968 3.59125 14.6605 3.55786 14.6175 3.53586C14.5744 3.51386 14.5261 3.50409 14.4779 3.50762C14.4296 3.51115 14.3833 3.52784 14.3438 3.55588L13.3059 4.29991L13.2242 4.35876C12.1058 3.24262 10.5707 2.54468 8.86982 2.54468C5.4587 2.54468 2.68372 5.32001 2.68372 8.73095C2.68372 12.1419 5.45888 14.9172 8.86982 14.9172C9.88271 14.9174 10.8802 14.6688 11.7745 14.1933C12.6688 13.7178 13.4327 13.0299 13.999 12.1901C14.0218 12.1564 14.0378 12.1186 14.046 12.0788C14.0542 12.0389 14.0545 11.9979 14.0467 11.9579C14.039 11.918 14.0235 11.8799 14.0011 11.846C13.9787 11.8121 13.9498 11.7829 13.916 11.7602L12.3684 10.6861C12.2956 10.6374 12.2065 10.6195 12.1205 10.6363C12.0346 10.653 11.9587 10.7031 11.9095 10.7755C11.2254 11.7869 10.0918 12.3907 8.87558 12.3907C6.85737 12.3907 5.21529 10.749 5.21529 8.7313C5.21529 6.71362 6.85737 5.07189 8.87558 5.07189C9.72735 5.07189 10.5086 5.36803 11.1306 5.85766L10.9558 5.98338L9.91716 6.72724C9.87799 6.75564 9.84738 6.79424 9.82865 6.83885C9.80992 6.88345 9.80379 6.93234 9.81095 6.98019C9.8181 7.02803 9.83825 7.073 9.8692 7.11017C9.90016 7.14735 9.94072 7.17532 9.98648 7.19102L14.4297 8.70476C14.5102 8.73287 14.5984 8.71925 14.6686 8.66931C14.7383 8.61867 14.7785 8.53888 14.7781 8.45436L14.7617 3.76926Z" fill="black"/>
    <path d="M14.7617 3.76926C14.7613 3.72088 14.7476 3.67355 14.7222 3.6324C14.6968 3.59125 14.6605 3.55786 14.6175 3.53586C14.5744 3.51386 14.5261 3.50409 14.4779 3.50762C14.4296 3.51115 14.3833 3.52784 14.3438 3.55588L13.3059 4.29991L13.2242 4.35876C12.1058 3.24262 10.5707 2.54468 8.86982 2.54468C5.4587 2.54468 2.68372 5.32001 2.68372 8.73095C2.68372 12.1419 5.45888 14.9172 8.86982 14.9172C9.88271 14.9174 10.8802 14.6688 11.7745 14.1933C12.6688 13.7178 13.4327 13.0299 13.999 12.1901C14.0218 12.1564 14.0378 12.1186 14.046 12.0788C14.0542 12.0389 14.0545 11.9979 14.0467 11.9579C14.039 11.918 14.0235 11.8799 14.0011 11.846C13.9787 11.8121 13.9498 11.7829 13.916 11.7602L12.3684 10.6861C12.2956 10.6374 12.2065 10.6195 12.1205 10.6363C12.0346 10.653 11.9587 10.7031 11.9095 10.7755C11.2254 11.7869 10.0918 12.3907 8.87558 12.3907C6.85737 12.3907 5.21529 10.749 5.21529 8.7313C5.21529 6.71362 6.85737 5.07189 8.87558 5.07189C9.72735 5.07189 10.5086 5.36803 11.1306 5.85766L10.9558 5.98338L9.91716 6.72724C9.87799 6.75564 9.84738 6.79424 9.82865 6.83885C9.80992 6.88345 9.80379 6.93234 9.81095 6.98019C9.8181 7.02803 9.83825 7.07299 9.8692 7.11017C9.90016 7.14735 9.94072 7.17532 9.98648 7.19102L14.4297 8.70476C14.5102 8.73287 14.5984 8.71925 14.6686 8.66931C14.7383 8.61867 14.7785 8.53888 14.7781 8.45436L14.7617 3.76926Z" fill="black"/>
    </g>
    <defs>
    <clipPath id="clip0_2419_35253">
    <rect width="17.025" height="17.4615" fill="white"/>
    </clipPath>
    </defs>
    
</svg>
