<svg width="20" height="19" viewBox="0 0 20 19" fill="none" xmlns="http://www.w3.org/2000/svg">
    <g clip-path="url(#clip0_1773_32752)">
        <path d="M18.1641 7.53906C18.077 7.62646 17.9735 7.69581 17.8595 7.74313C17.7456 7.79044 17.6234 7.8148 17.5 7.8148C17.3766 7.8148 17.2544 7.79044 17.1405 7.74313C17.0265 7.69581 16.923 7.62646 16.8359 7.53906L15.3125 6.01563V11.25C15.3125 11.4986 15.2137 11.7371 15.0379 11.9129C14.8621 12.0887 14.6236 12.1875 14.375 12.1875C14.1264 12.1875 13.8879 12.0887 13.7121 11.9129C13.5363 11.7371 13.4375 11.4986 13.4375 11.25V6.01563L11.9141 7.53906C11.7371 7.71368 11.4986 7.81159 11.25 7.81159C11.0014 7.81159 10.7629 7.71368 10.5859 7.53906C10.4985 7.45197 10.4292 7.34847 10.3819 7.23452C10.3346 7.12056 10.3102 6.99839 10.3102 6.875C10.3102 6.75161 10.3346 6.62944 10.3819 6.51548C10.4292 6.40153 10.4985 6.29803 10.5859 6.21094L13.7109 3.08594H13.7188L13.7812 3.02344L13.8125 3L13.8516 2.96875L13.8984 2.94531L13.9297 2.92188L13.9766 2.90625L14.0156 2.88281L14.0547 2.86719L14.1016 2.85156H14.1484L14.1953 2.83594H14.5547L14.6016 2.85156H14.6484L14.6875 2.86719L14.7344 2.88281L14.7734 2.89844L14.8203 2.92188L14.8516 2.94531L14.8984 2.96875L14.9297 3L14.9688 3.02344L15.0312 3.07813C15.0312 3.0802 15.0321 3.08218 15.0335 3.08365C15.035 3.08511 15.037 3.08594 15.0391 3.08594L18.1641 6.21094C18.2515 6.29803 18.3208 6.40153 18.3681 6.51548C18.4154 6.62944 18.4398 6.75161 18.4398 6.875C18.4398 6.99839 18.4154 7.12056 18.3681 7.23452C18.3208 7.34847 18.2515 7.45197 18.1641 7.53906V7.53906ZM3.75 10.9375H9.375C9.62364 10.9375 9.8621 10.8387 10.0379 10.6629C10.2137 10.4871 10.3125 10.2486 10.3125 10C10.3125 9.75136 10.2137 9.5129 10.0379 9.33709C9.8621 9.16127 9.62364 9.0625 9.375 9.0625H3.75C3.50136 9.0625 3.2629 9.16127 3.08709 9.33709C2.91127 9.5129 2.8125 9.75136 2.8125 10C2.8125 10.2486 2.91127 10.4871 3.08709 10.6629C3.2629 10.8387 3.50136 10.9375 3.75 10.9375V10.9375ZM3.75 5.9375H8.125C8.37364 5.9375 8.6121 5.83873 8.78791 5.66291C8.96373 5.4871 9.0625 5.24864 9.0625 5C9.0625 4.75136 8.96373 4.5129 8.78791 4.33709C8.6121 4.16127 8.37364 4.0625 8.125 4.0625H3.75C3.50136 4.0625 3.2629 4.16127 3.08709 4.33709C2.91127 4.5129 2.8125 4.75136 2.8125 5C2.8125 5.24864 2.91127 5.4871 3.08709 5.66291C3.2629 5.83873 3.50136 5.9375 3.75 5.9375V5.9375ZM14.375 14.0625H3.75C3.50136 14.0625 3.2629 14.1613 3.08709 14.3371C2.91127 14.5129 2.8125 14.7514 2.8125 15C2.8125 15.2486 2.91127 15.4871 3.08709 15.6629C3.2629 15.8387 3.50136 15.9375 3.75 15.9375H14.375C14.6236 15.9375 14.8621 15.8387 15.0379 15.6629C15.2137 15.4871 15.3125 15.2486 15.3125 15C15.3125 14.7514 15.2137 14.5129 15.0379 14.3371C14.8621 14.1613 14.6236 14.0625 14.375 14.0625Z" fill="#1D70B8" />
    </g>
    <defs>
        <clipPath id="clip0_1773_32752">
            <rect width="20" height="19" fill="white" />
        </clipPath>
    </defs>
</svg>