<svg width="25" height="25" viewBox="0 0 25 25" fill="none" xmlns="http://www.w3.org/2000/svg">
<g clip-path="url(#clip0_2993_37743)">
<path d="M12.5 0C13.6475 0 14.7542 0.146484 15.8203 0.439453C16.8864 0.732422 17.8792 1.1556 18.7988 1.70898C19.7184 2.26237 20.5607 2.91341 21.3257 3.66211C22.0907 4.41081 22.7458 5.25309 23.291 6.18896C23.8363 7.12484 24.2554 8.12174 24.5483 9.17969C24.8413 10.2376 24.9919 11.3444 25 12.5C25 13.6475 24.8535 14.7542 24.5605 15.8203C24.2676 16.8864 23.8444 17.8792 23.291 18.7988C22.7376 19.7184 22.0866 20.5607 21.3379 21.3257C20.5892 22.0907 19.7469 22.7458 18.811 23.291C17.8752 23.8363 16.8783 24.2554 15.8203 24.5483C14.7624 24.8413 13.6556 24.9919 12.5 25C11.3525 25 10.2458 24.8535 9.17969 24.5605C8.11361 24.2676 7.12077 23.8444 6.20117 23.291C5.28158 22.7376 4.43929 22.0866 3.67432 21.3379C2.90934 20.5892 2.25423 19.7469 1.70898 18.811C1.16374 17.8752 0.744629 16.8783 0.45166 15.8203C0.158691 14.7624 0.00813802 13.6556 0 12.5C0 11.3525 0.146484 10.2458 0.439453 9.17969C0.732422 8.11361 1.1556 7.12077 1.70898 6.20117C2.26237 5.28158 2.91341 4.43929 3.66211 3.67432C4.41081 2.90934 5.25309 2.25423 6.18896 1.70898C7.12484 1.16374 8.12174 0.744629 9.17969 0.45166C10.2376 0.158691 11.3444 0.00813802 12.5 0ZM19.8608 8.36182L18.2007 6.70166L10.1562 14.7461L6.79932 11.3892L5.13916 13.0493L10.1562 18.0664L19.8608 8.36182Z" fill="#505A5F"/>
</g>
<defs>
<clipPath id="clip0_2993_37743">
<rect width="25" height="25" fill="white"/>
</clipPath>
</defs>
</svg>
