<svg xmlns="http://www.w3.org/2000/svg" x="0" y="0" viewBox="0 0 100 100" xml:space="preserve">
    <g>
        <path d="M47.429 53.064c-3.016-2.207-5.906-4.565-8.75-6.977-2.852-2.402-5.629-4.894-8.392-7.404-2.738-2.538-5.46-5.096-8.107-7.743-2.655-2.637-5.264-5.329-7.745-8.174a2.024 2.024 0 0 1 2.571-3.064c3.232 1.949 6.336 4.052 9.395 6.208 3.066 2.147 6.058 4.384 9.033 6.64 2.951 2.285 5.887 4.587 8.748 6.979 2.869 2.382 5.693 4.818 8.39 7.406a4.01 4.01 0 0 1-5.143 6.129z" fill="#333"/>
    </g>
    <path d="M49.833 27.833V12.5c20.711 0 37.5 16.789 37.5 37.5s-16.789 37.5-37.5 37.5-37.5-16.789-37.5-37.5" fill="none" stroke="#333" stroke-width="6" stroke-linecap="round" stroke-linejoin="round" stroke-miterlimit="10"/>
</svg>